<?xml version="1.0" encoding="UTF-8" standalone="no"?>
<!-- Created with Inkscape (http://www.inkscape.org/) -->

<svg
   version="1.0"
   width="1091.9919"
   height="630.11902"
   viewBox="0 0 1091.992 630.119"
   id="svg2"
   inkscape:version="1.3.2 (091e20e, 2023-11-25, custom)"
   sodipodi:docname="Republics_of_Russia_(labeled).svg"
   inkscape:export-filename="Republics_of_Russia_(labeled).png"
   inkscape:export-xdpi="96"
   inkscape:export-ydpi="96"
   xmlns:inkscape="http://www.inkscape.org/namespaces/inkscape"
   xmlns:sodipodi="http://sodipodi.sourceforge.net/DTD/sodipodi-0.dtd"
   xmlns:xlink="http://www.w3.org/1999/xlink"
   xmlns="http://www.w3.org/2000/svg"
   xmlns:svg="http://www.w3.org/2000/svg"
   xmlns:rdf="http://www.w3.org/1999/02/22-rdf-syntax-ns#"
   xmlns:cc="http://creativecommons.org/ns#"
   xmlns:dc="http://purl.org/dc/elements/1.1/">
  <sodipodi:namedview
     pagecolor="#ffffff"
     bordercolor="#666666"
     borderopacity="1"
     objecttolerance="10"
     gridtolerance="10"
     guidetolerance="10"
     inkscape:pageopacity="0"
     inkscape:pageshadow="2"
     inkscape:window-width="1920"
     inkscape:window-height="1009"
     id="namedview4764"
     showgrid="false"
     inkscape:zoom="3.2946158"
     inkscape:cx="-26.710246"
     inkscape:cy="481.54325"
     inkscape:window-x="-8"
     inkscape:window-y="-8"
     inkscape:window-maximized="1"
     inkscape:current-layer="g12794"
     inkscape:showpageshadow="2"
     inkscape:pagecheckerboard="0"
     inkscape:deskcolor="#d1d1d1" />
  <defs
     id="defs558" />
  <style
     type="text/css"
     id="style3390" />
  <metadata
     id="metadata1880">
    <rdf:RDF>
      <cc:Work
         rdf:about="">
        <dc:date>16-04-2008</dc:date>
        <dc:creator>
          <cc:Agent>
            <dc:title>Lokal_Profil</dc:title>
          </cc:Agent>
        </dc:creator>
        <cc:license
           rdf:resource="http://creativecommons.org/licenses/by-sa/2.5/" />
        <dc:rights>
          <cc:Agent>
            <dc:title>cc-by-sa-2.5</dc:title>
          </cc:Agent>
        </dc:rights>
        <dc:format>image/svg+xml</dc:format>
        <dc:type
           rdf:resource="http://purl.org/dc/dcmitype/StillImage" />
      </cc:Work>
      <cc:License
         rdf:about="http://creativecommons.org/licenses/by-sa/2.5/">
        <cc:permits
           rdf:resource="http://web.resource.org/cc/Reproduction" />
        <cc:permits
           rdf:resource="http://web.resource.org/cc/Distribution" />
        <cc:requires
           rdf:resource="http://web.resource.org/cc/Notice" />
        <cc:requires
           rdf:resource="http://web.resource.org/cc/Attribution" />
        <cc:permits
           rdf:resource="http://web.resource.org/cc/DerivativeWorks" />
        <cc:requires
           rdf:resource="http://web.resource.org/cc/ShareAlike" />
      </cc:License>
    </rdf:RDF>
  </metadata>
  <g
     transform="translate(26.000002,8.0000247)"
     id="SA3"
     style="fill:#800080;fill-opacity:1;stroke:#000000" />
  <g
     transform="translate(26.000002,8.0000247)"
     id="use4237"
     style="fill:#800080;fill-opacity:1;stroke:#000000" />
  <g
     id="g12794">
    <polygon
       style="fill:#b3b3b3;fill-opacity:1;fill-rule:nonzero;stroke:#000000;stroke-opacity:1"
       id="polygon3064"
       points="717.637,134.061 718.771,132.926 720.359,131.338 722.704,128.994 724.141,130.733 724.897,130.733 726.787,128.843 728.527,126.801 731.854,125.289 734.274,127.104 732.913,130.885 732.913,133.002 731.325,134.59 728.829,135.725 726.107,136.784 723.385,136.784 721.343,138.826 718.091,137.691 716.427,135.271 715.671,134.212 715.671,134.212 715.368,133.002 "
       transform="translate(25.9971,7.9998)" />
    <polygon
       style="fill:#b3b3b3;fill-opacity:1;fill-rule:nonzero;stroke:#000000;stroke-opacity:1"
       id="polygon3066"
       points="705.083,144.648 706.822,146.388 709.771,146.917 711.587,146.161 713.1,146.161 714.611,144.649 713.855,141.472 711.436,141.472 712.041,138.75 712.041,136.784 710.074,137.389 710.074,137.389 705.234,137.389 703.646,138.977 701.15,140.716 699.335,138.901 694.949,140.262 695.252,142.985 696.387,144.12 698.05,145.783 699.185,146.917 697.521,148.279 695.252,146.313 694.042,147.522 692.378,145.858 688.597,146.615 686.933,145.708 686.177,147.674 687.387,148.883 685.118,150.094 685.118,152.967 686.934,154.782 686.479,156.9 688.143,156.9 690.261,159.018 689.655,161.438 692.378,162.799 696.008,162.95 697.521,164.462 700.243,164.462 703.419,163.555 703.419,161.135 701.453,159.32 702.512,158.261 704.1,159.849 706.898,154.783 709.545,152.136 710.68,153.27 713.1,150.85 713.855,148.581 711.133,147.674 709.318,149.489 707.05,147.825 704.327,146.161 701.604,144.195 702.512,142.229 703.949,140.792 "
       transform="translate(25.9971,7.9998)" />
    <polygon
       style="fill:#b3b3b3;fill-opacity:1;fill-rule:nonzero;stroke:#000000;stroke-opacity:1"
       id="polygon3068"
       points="714.461,163.858 712.646,164.009 712.646,164.009 711.284,165.219 712.343,168.244 714.083,169.984 715.52,167.185 715.52,164.917 "
       transform="translate(25.9971,7.9998)" />
    <polygon
       style="fill:#b3b3b3;fill-opacity:1;fill-rule:nonzero;stroke:#000000;stroke-opacity:1"
       id="polygon3070"
       points="717.107,168.471 718.091,170.815 719.755,172.479 718.695,174.899 719.604,175.807 720.965,172.933 724.443,172.176 727.469,170.966 731.552,168.546 729.435,164.614 726.561,164.614 722.477,163.252 720.586,164.992 718.847,166.731 718.847,166.731 "
       transform="translate(25.9971,7.9998)" />
    <polygon
       style="fill:#b3b3b3;fill-opacity:1;fill-rule:nonzero;stroke:#000000;stroke-opacity:1"
       id="polygon3072"
       points="685.571,161.891 684.815,160.227 684.815,160.227 683.454,158.866 681.034,158.715 682.623,160.303 683.605,163.857 685.571,163.857 "
       transform="translate(25.9971,7.9998)" />
    <polygon
       style="fill:#b3b3b3;fill-opacity:1;fill-rule:nonzero;stroke:#000000;stroke-opacity:1"
       id="polygon3074"
       points="613.727,222.391 613.727,218.761 610.853,218.761 609.188,219.064 609.188,219.064 606.391,221.862 606.391,223.752 608.734,223.752 609.491,225.567 611.457,224.66 "
       transform="translate(25.9971,7.9998)" />
    <polygon
       style="fill:#b3b3b3;fill-opacity:1;fill-rule:nonzero;stroke:#000000;stroke-opacity:1"
       id="polygon3076"
       points="706.891,114.247 707.874,115.23 709.009,114.247 707.798,112.583 707.798,112.583 "
       transform="translate(25.9971,7.9998)" />
    <polygon
       style="fill:#b3b3b3;fill-opacity:1;fill-rule:nonzero;stroke:#000000;stroke-opacity:1"
       id="polygon3078"
       points="699.328,181.251 700.235,180.041 699.328,178.68 699.328,178.68 696.454,178.075 695.547,178.831 697.211,179.587 "
       transform="translate(25.9971,7.9998)" />
    <polygon
       style="fill:#b3b3b3;fill-opacity:1;fill-rule:nonzero;stroke:#000000;stroke-opacity:1"
       id="polygon3080"
       points="576.813,182.16 578.175,183.067 578.779,182.008 577.419,181.252 577.419,181.252 "
       transform="translate(25.9971,7.9998)" />
    <polygon
       style="fill:#b3b3b3;fill-opacity:1;fill-rule:nonzero;stroke:#000000;stroke-opacity:1"
       id="polygon3082"
       points="572.578,168.849 570.915,167.791 570.915,167.791 569.402,168.698 571.52,169.757 573.032,170.815 574.696,170.362 574.242,168.396 "
       transform="translate(25.9971,7.9998)" />
    <polygon
       style="fill:#b3b3b3;fill-opacity:1;fill-rule:nonzero;stroke:#000000;stroke-opacity:1"
       id="polygon3084"
       points="566.377,164.614 565.167,161.589 563.806,159.32 561.991,160.077 560.176,156.9 558.814,155.539 557.15,157.505 556.092,160.379 556.092,160.379 556.092,158.262 556.243,154.48 555.185,152.363 553.672,152.514 551.555,155.085 551.706,157.354 550.798,158.867 551.403,162.951 549.588,164.766 549.739,168.849 548.832,172.328 548.075,175.807 549.437,176.563 552.311,174.294 553.975,173.236 557.756,171.27 560.781,170.967 564.563,168.093 "
       transform="translate(25.9971,7.9998)" />
    <path
       style="fill:#b3b3b3;fill-opacity:1;fill-rule:nonzero;stroke:#000000;stroke-width:1;stroke-opacity:1"
       id="path3086"
       d="m 568.47612,152.1948 -1.361,1.664 -1.21,2.269 -1.059,-0.454 0.756,-2.874 0,-3.025 -3.327,1.059 c 0,0 -1.966,0.454 -2.42,0.605 -0.454,0.151 -2.723,0.908 -2.723,0.908 l -1.059,2.269 -0.605,1.966 -1.361,1.664 0.454,1.966 -2.571,1.966 1.21,1.059 1.814,-0.605 1.513,2.117 0.151,1.966 1.361,1.664 3.479,0.302 0.454,1.966 2.42,-1.512 1.21,1.966 3.327,1.21 3.177,-1.513 1.513,-2.118 -1.21,-2.42 -1.967,-2.723 1.513,-1.059 0.605,-2.571 -0.757,-2.874 0.303,-2.874 -3.63,-1.964 z"
       inkscape:connector-curvature="0" />
    <polygon
       style="fill:#b3b3b3;fill-opacity:1;fill-rule:nonzero;stroke:#000000;stroke-opacity:1"
       id="polygon3088"
       points="539.908,192.293 539.757,190.479 539.757,190.479 538.244,192.293 536.278,192.747 538.093,194.108 "
       transform="translate(25.9971,7.9998)" />
    <polygon
       style="fill:#b3b3b3;fill-opacity:1;fill-rule:nonzero;stroke:#000000;stroke-opacity:1"
       id="polygon3090"
       points="513.742,191.083 514.8,191.991 516.162,190.024 514.498,189.874 514.498,189.874 "
       transform="translate(25.9971,7.9998)" />
    <path
       style="fill:#b3b3b3;fill-opacity:1;fill-rule:nonzero;stroke:#000000;stroke-width:1;stroke-opacity:1"
       id="path3092"
       d="m 524.91612,239.3158 -1.815,0.908 c 0,0 0.756,2.269 0.756,1.966 0,-0.303 1.361,-0.605 1.361,-0.605 l -0.302,-2.269 z"
       inkscape:connector-curvature="0" />
    <polygon
       style="fill:#b3b3b3;fill-opacity:1;fill-rule:nonzero;stroke:#000000;stroke-opacity:1"
       id="polygon3094"
       points="484.248,219.064 485.155,220.88 486.667,220.577 485.912,217.704 485.912,217.704 "
       transform="translate(25.9971,7.9998)" />
    <polygon
       style="fill:#b3b3b3;fill-opacity:1;fill-rule:nonzero;stroke:#000000;stroke-opacity:1"
       id="polygon3096"
       points="489.088,238.273 487.575,237.971 485.306,237.518 485.306,237.518 485.004,239.181 487.575,239.181 488.937,240.542 "
       transform="translate(25.9971,7.9998)" />
    <polygon
       style="fill:#b3b3b3;fill-opacity:1;fill-rule:nonzero;stroke:#000000;stroke-opacity:1"
       id="polygon3098"
       points="478.803,149.035 476.534,147.825 476.534,147.825 475.626,148.733 476.685,149.338 478.349,150.548 "
       transform="translate(25.9971,7.9998)" />
    <polygon
       style="fill:#b3b3b3;fill-opacity:1;fill-rule:nonzero;stroke:#000000;stroke-opacity:1"
       id="polygon3100"
       points="468.669,252.793 467.308,253.247 467.308,253.247 466.249,254.608 466.854,256.423 467.913,257.785 469.425,256.121 470.03,254.155 "
       transform="translate(25.9971,7.9998)" />
    <polygon
       style="fill:#b3b3b3;fill-opacity:1;fill-rule:nonzero;stroke:#000000;stroke-opacity:1"
       id="polygon3102"
       points="457.93,260.054 456.115,261.566 457.779,262.776 459.14,261.566 461.258,261.566 463.224,259.751 461.409,257.936 459.594,258.39 459.594,258.39 "
       transform="translate(25.9971,7.9998)" />
    <polygon
       style="fill:#b3b3b3;fill-opacity:1;fill-rule:nonzero;stroke:#000000;stroke-opacity:1"
       id="polygon3104"
       points="457.779,243.567 457.174,242.206 454.149,241.601 454.149,241.601 452.788,242.811 453.695,244.172 455.51,242.962 "
       transform="translate(25.9971,7.9998)" />
    <polygon
       style="fill:#b3b3b3;fill-opacity:1;fill-rule:nonzero;stroke:#000000;stroke-opacity:1"
       id="polygon3106"
       points="446.435,249.617 447.645,250.676 449.006,249.012 447.191,247.651 447.191,247.651 "
       transform="translate(25.9971,7.9998)" />
    <polygon
       style="fill:#b3b3b3;fill-opacity:1;fill-rule:nonzero;stroke:#000000;stroke-opacity:1"
       id="polygon3108"
       points="429.042,243.114 431.765,243.87 434.336,242.66 435.849,242.812 435.849,241.299 433.429,240.694 434.639,239.333 433.277,237.367 431.614,237.972 431.009,237.82 431.009,237.82 429.345,239.03 429.95,240.392 428.74,242.055 "
       transform="translate(25.9971,7.9998)" />
    <polygon
       style="fill:#b3b3b3;fill-opacity:1;fill-rule:nonzero;stroke:#000000;stroke-opacity:1"
       id="polygon3110"
       points="367.029,265.499 365.365,261.717 365.365,261.717 362.945,262.927 361.13,263.532 361.584,267.465 361.886,269.583 363.55,270.036 364.155,273.212 367.332,273.515 368.39,270.944 366.877,268.373 "
       transform="translate(25.9971,7.9998)" />
    <polygon
       style="fill:#b3b3b3;fill-opacity:1;fill-rule:nonzero;stroke:#000000;stroke-opacity:1"
       id="polygon3112"
       points="312.881,257.18 315.452,257.634 316.813,254.458 314.696,251.735 314.544,249.466 311.822,248.559 311.822,248.559 308.495,249.466 306.528,252.038 305.016,254.004 306.074,256.877 308.495,257.785 310.763,258.692 "
       transform="translate(25.9971,7.9998)" />
    <polygon
       style="fill:#b3b3b3;fill-opacity:1;fill-rule:nonzero;stroke:#000000;stroke-opacity:1"
       id="polygon3114"
       points="213.206,251.583 214.265,252.945 215.626,251.583 213.811,250.676 213.811,250.676 "
       transform="translate(25.9971,7.9998)" />
    <polygon
       style="fill:#b3b3b3;fill-opacity:1;fill-rule:nonzero;stroke:#000000;stroke-opacity:1"
       id="polygon3116"
       points="385.934,194.108 384.27,192.142 385.329,190.478 387.144,192.293 389.413,192.293 389.413,190.024 392.74,191.234 394.404,189.419 396.068,187.453 398.186,187.453 401.815,185.79 404.387,186.697 408.168,186.697 410.664,184.201 413.613,184.428 414.974,186.395 418.15,186.395 419.663,187.907 422.386,187.15 426.167,187.15 428.663,184.655 431.612,183.067 435.544,181.554 439.174,181.554 441.292,184.882 441.292,188.512 438.116,191.386 435.242,194.108 431.461,194.411 426.923,196.528 422.839,195.016 420.873,196.982 416.184,196.831 410.134,196.831 407.865,199.251 403.177,199.251 399.698,201.217 400.757,203.637 398.336,204.544 395.463,204.242 392.892,204.242 392.589,205.906 389.867,205.149 389.867,207.872 387.144,209.838 384.875,211.502 384.875,208.931 383.06,210.595 383.514,213.62 381.699,213.62 380.413,212.334 380.413,213.771 380.413,216.04 379.09,214.716 377.389,216.417 375.951,217.855 373.984,217.855 372.472,219.821 370.506,223.148 367.33,223.148 364.758,225.266 364.758,228.14 362.187,229.199 361.279,232.224 359.162,234.341 359.162,238.123 358.103,240.845 359.464,244.777 358.254,248.71 359.918,251.281 360.674,254.004 359.767,254.912 357.196,256.122 357.196,254.155 354.776,252.794 354.776,252.794 353.112,252.794 351.297,250.071 350.239,250.676 347.063,247.651 344.642,245.08 345.55,242.357 347.97,241.601 348.877,240.089 347.213,238.728 347.365,235.097 346.306,234.795 345.247,232.072 342.979,231.921 341.164,229.35 341.769,226.022 344.188,222.695 347.063,222.997 347.97,224.056 349.028,224.51 349.482,222.543 352.961,221.485 355.684,218.611 353.869,216.645 356.289,215.132 359.011,216.191 359.768,213.922 359.768,211.653 363.246,211.653 364.91,213.317 366.649,211.578 367.027,209.99 370.809,209.233 369.523,207.948 366.271,206.813 366.271,205.604 370.053,204.544 373.985,203.486 375.951,201.52 378.522,201.52 378.522,199.705 382.153,199.553 380.187,197.587 383.363,197.436 384.573,198.646 384.421,195.621 "
       transform="translate(25.9971,7.9998)" />
    <polygon
       style="fill:#b3b3b3;fill-opacity:1;fill-rule:nonzero;stroke:#000000;stroke-opacity:1"
       id="polygon3118"
       points="490.125,129.995 491.125,128.995 489.25,128.245 489.25,128.245 488,128.495 487.188,129.307 488.438,130.557 "
       transform="translate(25.9971,7.9998)" />
    <polygon
       style="fill:#b3b3b3;fill-opacity:1;fill-rule:nonzero;stroke:#000000;stroke-opacity:1"
       id="polygon3120"
       points="520.5,126.87 520.5,125.62 517.875,125.745 517.875,125.745 516.75,126.87 517.625,127.745 518.563,128.682 "
       transform="translate(25.9971,7.9998)" />
    <polygon
       style="fill:#b3b3b3;fill-opacity:1;fill-rule:nonzero;stroke:#000000;stroke-opacity:1"
       id="polygon3122"
       points="527.25,127.62 523.875,129.87 523.875,132.995 525.25,134.37 523.438,136.182 522.25,138.495 523.875,140.745 524.5,142.995 527.375,145.495 530,142.995 531.75,142.995 534.375,141.495 537.5,140.495 536.625,137.495 536.625,133.745 538.5,132.12 536.938,130.557 533.75,127.37 532.625,124.87 529.875,124.12 529.875,124.12 529.5,126.62 "
       transform="translate(25.9971,7.9998)" />
    <polygon
       style="fill:#b3b3b3;fill-opacity:1;fill-rule:nonzero;stroke:#000000;stroke-opacity:1"
       id="polygon3124"
       points="526.313,149.307 527.25,146.87 525.625,145.62 522.5,144.87 522.5,144.87 520.375,144.62 520.75,147.37 520.75,149.12 523.5,149.87 524.625,150.995 "
       transform="translate(25.9971,7.9998)" />
    <polygon
       style="fill:#b3b3b3;fill-opacity:1;fill-rule:nonzero;stroke:#000000;stroke-opacity:1"
       id="polygon3126"
       points="488.313,209.682 489.375,210.62 491.125,210.12 489.125,208.87 489.125,208.87 "
       transform="translate(25.9971,7.9998)" />
    <polygon
       style="fill:#b3b3b3;fill-opacity:1;fill-rule:nonzero;stroke:#000000;stroke-opacity:1"
       id="polygon3128"
       points="452.625,107.12 452.625,104.745 451.125,104.12 451.125,104.12 449.875,104.495 450.875,105.87 450.875,107.12 "
       transform="translate(25.9971,7.9998)" />
    <polygon
       style="fill:#b3b3b3;fill-opacity:1;fill-rule:nonzero;stroke:#000000;stroke-opacity:1"
       id="polygon3130"
       points="452.75,114.495 450.75,114.745 450.75,114.745 449.875,116.12 446.625,116.745 444.5,117.87 446.125,118.62 445.375,120.37 446.75,120.745 449.5,120.745 451.688,118.557 453.313,116.932 "
       transform="translate(25.9971,7.9998)" />
    <polygon
       style="fill:#b3b3b3;fill-opacity:1;fill-rule:nonzero;stroke:#000000;stroke-opacity:1"
       id="polygon3132"
       points="443.375,111.62 442,111.62 440.375,112.495 440.375,112.495 439.688,113.182 441,114.495 443.375,113.62 "
       transform="translate(25.9971,7.9998)" />
    <polygon
       style="fill:#b3b3b3;fill-opacity:1;fill-rule:nonzero;stroke:#000000;stroke-opacity:1"
       id="polygon3134"
       points="439.625,121.495 441.313,119.807 442.563,118.557 443.25,116.495 441.375,116.495 438.563,116.432 438.563,116.432 436.75,114.37 435.375,115.745 434.375,117.745 434.375,120.245 436.5,120.62 437,122.12 "
       transform="translate(25.9971,7.9998)" />
    <polygon
       style="fill:#b3b3b3;fill-opacity:1;fill-rule:nonzero;stroke:#000000;stroke-opacity:1"
       id="polygon3136"
       points="432.625,125.495 431.125,125.12 431.125,125.12 430.313,125.932 430.313,127.495 432,127.495 "
       transform="translate(25.9971,7.9998)" />
    <polygon
       style="fill:#b3b3b3;fill-opacity:1;fill-rule:nonzero;stroke:#000000;stroke-opacity:1"
       id="polygon3138"
       points="422.5,121.245 423.375,122.12 426.375,121.495 427.5,122.62 430.125,121.995 430.875,120.245 432.75,120.87 431.75,118.62 430.063,116.932 427.625,118.745 427.625,118.745 426.75,117.87 424,117.87 424,119.745 "
       transform="translate(25.9971,7.9998)" />
    <polygon
       style="fill:#b3b3b3;fill-opacity:1;fill-rule:nonzero;stroke:#000000;stroke-opacity:1"
       id="polygon3140"
       points="440.75,99.37 442.063,100.682 443.313,99.432 441.5,97.87 441.5,97.87 "
       transform="translate(25.9971,7.9998)" />
    <polygon
       style="fill:#b3b3b3;fill-opacity:1;fill-rule:nonzero;stroke:#000000;stroke-opacity:1"
       id="polygon3142"
       points="439.625,104.245 438.75,101.37 438.75,101.37 436.75,101.37 436.75,103.62 438.875,105.745 438.875,107.495 440.75,106.62 "
       transform="translate(25.9971,7.9998)" />
    <polygon
       style="fill:#b3b3b3;fill-opacity:1;fill-rule:nonzero;stroke:#000000;stroke-opacity:1"
       id="polygon3144"
       points="424.5,107.87 424.125,108.245 425.563,109.682 426.25,107.87 426.25,107.87 "
       transform="translate(25.9971,7.9998)" />
    <polygon
       style="fill:#b3b3b3;fill-opacity:1;fill-rule:nonzero;stroke:#000000;stroke-opacity:1"
       id="polygon3146"
       points="426.563,111.932 427.75,113.245 429.125,113.12 427.75,110.745 427.75,110.745 "
       transform="translate(25.9971,7.9998)" />
    <polygon
       style="fill:#b3b3b3;fill-opacity:1;fill-rule:nonzero;stroke:#000000;stroke-opacity:1"
       id="polygon3148"
       points="428.875,106.87 430.625,106.87 430.25,104.995 428.875,105.245 428.875,105.245 "
       transform="translate(25.9971,7.9998)" />
    <polygon
       style="fill:#b3b3b3;fill-opacity:1;fill-rule:nonzero;stroke:#000000;stroke-opacity:1"
       id="polygon3150"
       points="431.313,110.745 432.75,110.745 431.625,109.62 431.313,109.307 431.313,109.307 "
       transform="translate(25.9971,7.9998)" />
    <polygon
       style="fill:#b3b3b3;fill-opacity:1;fill-rule:nonzero;stroke:#000000;stroke-opacity:1"
       id="polygon3152"
       points="434.5,112.12 432.75,112.62 432.75,112.62 433.375,113.245 "
       transform="translate(25.9971,7.9998)" />
    <polygon
       style="fill:#b3b3b3;fill-opacity:1;fill-rule:nonzero;stroke:#000000;stroke-opacity:1"
       id="polygon3154"
       points="434.5,107.745 436,107.87 436,105.995 434.5,105.995 434.5,105.995 "
       transform="translate(25.9971,7.9998)" />
    <polygon
       style="fill:#b3b3b3;fill-opacity:1;fill-rule:nonzero;stroke:#000000;stroke-opacity:1"
       id="polygon3156"
       points="433.125,104.12 433.938,103.307 433.125,102.495 432.25,102.495 432.25,102.495 "
       transform="translate(25.9971,7.9998)" />
    <polygon
       style="fill:#b3b3b3;fill-opacity:1;fill-rule:nonzero;stroke:#000000;stroke-opacity:1"
       id="polygon3158"
       points="418.625,112.62 417.375,110.995 416.125,112.995 416.125,112.995 415.188,113.932 416.813,115.557 418.625,115.62 "
       transform="translate(25.9971,7.9998)" />
    <polygon
       style="fill:#b3b3b3;fill-opacity:1;fill-rule:nonzero;stroke:#000000;stroke-opacity:1"
       id="polygon3160"
       points="420.875,112.745 422.125,112.745 422.125,111.245 420.25,110.995 420.25,110.995 "
       transform="translate(25.9971,7.9998)" />
    <polygon
       style="fill:#b3b3b3;fill-opacity:1;fill-rule:nonzero;stroke:#000000;stroke-opacity:1"
       id="polygon3162"
       points="412,103.62 410.563,105.057 408,103.245 405.875,104.37 405.875,105.87 403.25,103.995 401.25,104.745 401.875,107.745 403.75,107.12 403.75,109.12 405.75,109.62 407.563,107.807 410.125,106.745 412.25,107.37 415.375,107.37 417.625,105.12 415.5,102.995 416.938,101.557 414.5,100.12 413.25,100.995 413.25,100.995 412,102.245 "
       transform="translate(25.9971,7.9998)" />
    <polygon
       style="fill:#b3b3b3;fill-opacity:1;fill-rule:nonzero;stroke:#000000;stroke-opacity:1"
       id="polygon3164"
       points="402.063,99.932 402.625,101.62 405.875,100.495 407,101.62 409.125,100.745 410,101.62 410,99.745 408.563,98.307 407.25,98.307 406.125,97.87 406.125,97.87 403.375,97.87 401.75,96.245 400.625,98.495 "
       transform="translate(25.9971,7.9998)" />
    <polygon
       style="fill:#b3b3b3;fill-opacity:1;fill-rule:nonzero;stroke:#000000;stroke-opacity:1"
       id="polygon3166"
       points="407.5,111.057 407.875,112.62 410.125,112.745 408.563,111.057 408.563,111.057 "
       transform="translate(25.9971,7.9998)" />
    <polygon
       style="fill:#b3b3b3;fill-opacity:1;fill-rule:nonzero;stroke:#000000;stroke-opacity:1"
       id="polygon3168"
       points="409.5,115.495 409,114.37 409,114.37 407.875,115.495 408.75,116.37 410.875,116.87 "
       transform="translate(25.9971,7.9998)" />
    <polygon
       style="fill:#b3b3b3;fill-opacity:1;fill-rule:nonzero;stroke:#000000;stroke-opacity:1"
       id="polygon3170"
       points="418.125,99.87 419.375,99.87 420.625,98.62 418.125,98.245 418.125,98.245 "
       transform="translate(25.9971,7.9998)" />
    <path
       style="fill:#b3b3b3;fill-opacity:1;fill-rule:nonzero;stroke:#000000;stroke-width:1;stroke-opacity:1"
       id="path3172"
       d="m 883.33014,78.1198 1.333,-4.833 5.084,-4.917 5.666,-5.667 2.584,-2.583 5,-2.167 3.582,-2.083 3.334,-3.333 3.417,-3.417 4.167,-1.667 3,-4.333 5.666,-1.667 3,-3.167 3.667,-1.667 2.333,-1.333 2.667,2.667 3.833,-1.167 3.417,2.583 2.25,-2.25 4,-2.167 0,-2 -4,0.833 -4.667,-0.333 -3,-0.833 1,-3 3.167,-2.167 -2.667,-0.667 0,-1.5 1.834,0.168 0.333,-3 1.667,-2.333 2.333,-2.333 4,-1.5 1.167,0 3,-4.167 c 0,0 2.833,-0.833 3.833,-1.833 1,-1 0,2.833 0,2.833 l 2.167,1.833 1.666,1.667 -1.833,3.833 c 0,0 2.5,0 3.5,-1 1,-1 0,2 0,2 l 0,3.5 -3.833,2.5 3,0.5 1.833,-1.833 3.917,1.5 0,-1.75 3.083,3.083 2.167,3.334 1.833,-0.5 1.833,-2.333 0,2.167 1.167,2.667 -3.5,0 0,1.333 2.833,0.833 -1.5,4.333 -3.833,0.333 -3.5,3.833 -1.833,4 -3.5,1.167 -2.5,-1 -3.167,0 -2.833,4.167 1.25,2.5 0,4.25 -2.75,2.75 -2.167,-1.667 -2.167,1.667 -3.166,0 -1.834,-1.5 -1.666,-1 -0.25,1.583 1.25,1.25 -1.5,0.667 -1,1 2.916,0.5 0,2.25 2.25,2.25 3.667,-1 2.5,0 0.166,3.167 1.5,-1.5 2.584,2.584 2.75,2.75 1.333,4.833 0.667,3.833 -2.667,4.333 -2.5,0 -3.5,1.5 -1.166,2.666 2.833,-1.167 1.833,0 -2.666,3.168 1.666,1.666 2.167,-0.833 0,-3.167 2,-1.5 3.583,-0.083 2.084,-2.083 1,-1.667 2.5,0.167 2,-0.333 3.666,-0.167 0,2.333 3,0 0.834,-1.583 2.916,0 1.75,-1.75 2.167,-0.333 1.833,1.5 2.667,-2 1.25,2.917 2.417,2.417 0,3.5 -3.334,1.333 -2.166,4.665 -3.5,0 -1,1.5 3.916,2.583 -1.25,1.25 2.834,4.334 1.166,5.333 0,6 1,4.667 1.667,4 0.834,5.333 1.666,5.167 3.167,2.833 0,4.833 1.66696,6.667 2.833,3.167 1.8331,1.833 -2.8331,2.5 -2.99996,-1.5 -4.167,1.333 -2.166,5 -3.5,5 1.833,1.834 -1.333,4.667 0,2.5 2.833,4.333 0,2.667 -3.167,-1.5 -2.333,-2.334 -2,0.167 1.833,4.833 0,3.167 3.083,1.417 -3.083,3.083 -2,0 0,4.333 -1.833,1.833 2.5,4.167 2,2 2.333,2.333 3.167,3.167 0.666,4.667 0.5,3.667 4.584,2.416 2.74996,2.75 4.6661,0 -1.25,-2.833 0,-1.417 1.584,-1.583 1.167,-2.5 4.333,4.333 0.833,3.833 4.333,3 4.292,0.958 1.708,-1.708 2.75,0 3.25,3.25 -1.333,3.167 -3.333,1 1,4 3.5,5.833 3.083,0.75 2.417,2.417 5.666,-0.667 3.334,2.667 1.166,3 -2,1.333 -2.833,1.833 -1.667,3.667 1.167,6.667 3.333,5.167 2.917,1.083 1.417,1.417 4.833,1.167 0,2 -3.667,0.5 0,3 -1.333,3 1.667,6 2.832,1.167 4.334,4.333 3.167,3 0.667,5.333 1.666,7 0.834,4.5 0,3.333 -1.834,-2.5 -4.833,0 -3.083,-1.583 -2.417,-2.417 -3.333,0 -3,-3 -5.834,-2.667 -5.5,-2.333 -6.333,-3.333 -1.833,-2.5 -3,-2 -3.334,-0.667 -7.166,-2.167 -4.667,-2.5 -4.5001,-3 -2.167,-4 -4.83296,-4.833 -3.333,-3.5 -10e-4,-3.5 -2.333,-2.333 -0.5,-3.833 -2.833,-4 -3.084,-0.667 0,-1.417 1.417,-1.417 1.167,-2.5 -1.583,-2.75 1.5,-1.5 1.25,-1.25 -1.667,-5 -0.833,-5.333 -2,-6.167 -3.167,-4.167 -1.333,-5.5 -1.5,-5.167 -1.667,-4.167 -2,-6.167 -2,-1.667 -0.167,-3.333 1.167,-4 0,-2.333 0,-2.833 -2,-2 -2.167,-4.167 -2.166,0 -2.084,-0.75 -1.916,-1.917 -2.334,-3 -3.5,-2.167 0,-3.833 3.167,-2.999 -1.084,-1.084 -2.583,2.583 -3.666,2 0,3.5 -1,2.667 1.999,1.833 2.917,2.917 2.75,2.75 3.334,0 -0.334,2.167 -1.5,-0.167 -1.583,2.25 2.083,2.083 0,5.333 1.667,4 0.333,6.333 -1.166,3.836 -1.334,-3.333 -3,-1.5 10e-4,4.167 -2.5,-2.5 -1.667,-1.667 -1.334,-2.833 -4.666,-4.333 1.333,3.667 -1.333,4 -4.5,0 0,2.667 -1.5,5.5 -1.834,2.167 0.167,7.333 3,2 -0.5,4.667 3,4.667 0,5 0.917,6.583 2.75,2.75 0,3 2.333,2.333 2.167,-0.333 1.916,-1.75 1.417,-1.417 2.5,0 -0.167,3.167 -2.666,0.833 0,4.5 -5,0.833 1.166,5.833 -0.5,2.5 -3.166,1.332 0,3.5 -1.167,3.167 c 0,0 -3.917,0.917 -3.167,0.167 0.75,-0.75 -1.5,-1.5 -1.5,-1.5 l 0,-2.167 0.667,-2.167 2.75,-0.917 -1.25,-1.25 -3,1.167 -3.167,0.5 0,1.5 -4.666,2.167 -2.334,2.833 -2.666,0.667 -2.167,2.167 -0.833,2.5 0.832,3.167 1.834,1.833 -2.166,2.333 -3.5,-1.333 1.083,3.583 -2.583,2.583 -2.334,2.167 -2,0 -2,1.833 1.334,2.167 1,1 -2.834,1.833 -3.833,0 -3.75,3.75 -2.417,2.417 -2.667,4.5 -2.833,2.833 -2.833,5.667 -0.5,5.5 2.667,5.333 -2.5,2.5 -0.833,5.333 1.499,3.833 2.334,2.333 -2,3.333 0,4.5 0,6 -1,4.167 0,5.667 1.667,1.833 0,4 0,4.5 -1.5,5.667 0,4.667 -2.5,4.167 0,4.166 -1.334,3.667 1.5,3.375 2.542,0 1.958,-1.958 2.749,0 2.168,-2.168 2.416,-2.416 1.667,1.667 2,1 0,2.167 1.584,2.916 2,2 1.75,-1.75 0,-2.666 -2.334,-1 0,-2.5 1.834,-2 0,1.666 2,1.5 1,-0.333 1,1 0,3 0,2.167 3.333,-1.333 0,-1.666 1.833,-2.5 1.167,-1 1.833,1.333 0.417,-2.75 -1.583,-1.583 -1.5,-2.834 -1.834,-3.333 3,-1.666 1.834,-1.834 3.666,-0.833 4.334,0 3.583,0.417 1.583,1.583 c 0,0 3.834,-0.667 4.667,-0.667 0.833,0 3.166,-1.001 3.166,-1.001 l 2.084,2.084 -1.584,1.584 -1.166,1.166 -1,1.834 2.833,0 3,0 0.667,2.166 2.5,2.5 3.084,-0.416 1.583,1.583 1.666,3.167 0.5,6.333 2.167,6.667 3.416,4.916 4.25,4.25 1.667,1.668 0.833,2.832 3.334,3.334 2.333,4 0.834,2.334 3.083,4.75 2.583,2.582 0,7 -1,6 1.834,6 -0.167,6.166 1.833,4.834 1.333,5.334 1,4.832 1,6.5 0,6.33403 -1,3.334 0,6.5 0,8 -1,6 1,6.166 -0.333,8 0,3.834 -3.333,5.5 -2.167,4.666 -2.5,4.668 -2.167,0 -4.166,1.665 -3.5,2 -2.417,-1 0,-2.25 -1.25,-1.25 -1.251,2.834 0,3.082 -1.416,-1.416 -2.166,-2.166 0,1.666 -0.667,4.166 0.667,2.834 -0.917,3.25 -1.417,1.416 0,1.668 0,2.666 -3.166,-0.166 -1.334,-1.334 1.167,-3.834 2,-4 0,-3.332 -1.75,-3.918 -3.583,-3.582 -1.834,-1.834 -1.5,-3.834 -3.166,-3.166 -3,-1 -0.084,-3.25 2.084,-2.084 1.833,-1.832 0,-3.334 2.333,-2.334 2.667,-1.332 2.751,0.916 2.416,-2.416 1.5,-3 -2.667,-4.168 1.333,-3.5 -1.666,-3.666 -0.334,-3.834 -2.333,-3.166 0.667,-2.666 -1.834,-3.168 -0.833,-3.666 -3.333,-3.50003 2.5,-2.5 0,-3.668 -2.083,-2.082 -2.417,-2.418 -0.667,-2.166 -2.833,0 -4,2.166 -1,3.334 -2.667,4.334 -3,3.832 1.334,4.16803 -3.5,2.832 -3.5,2 -3,1 -0.834,3 -3.166,0 -3.167,-1.832 -2.333,-0.834 0,-3.834 -2.667,-2.332 -2.167,-2.168 -3.583,-0.91603 -1.917,1.91603 -3.833,-1 -3.167,-0.83203 -4.833,0.666 -4.5,0 -1.833,1.83403 -5,1.832 -5,-1 -2.083,-4.08203 -2.417,-2.418 c 0,0 -2.83301,-1.666 -2.83301,-2.334 0,-0.668 -3.167,-3.166 -3.167,-3.166 l -4,-0.666 -1.667,-4 -3.834,-3 -2.666,-2.666 -3.667,-1 -1.333,-3.5 -3.334,-1.5 -2,-2 -6.666,-0.668 -3.5,0 -4,2.168 -5,-0.834 -3.834,1.334 -4.166,0 -5.668,4.166 -2.666,2.666 -5.25,3.084 -2.583,2.584 -1.833,5.5 -1.334,3.332 1.834,2.334 2.583,-2.084 2.083,2.084 2.334,2.33403 1.333,5.332 -1.333,2.834 -1,7.166 0,4.5 -1.834,4.668 2.5,4.832 1.5,1.5 0,4.668 -3.5,1 -2.25,5.25 -3.25,3.25 -5.5,2 -6.166,-0.5 -4.5,-0.834 -3.333,2 -4.667,2.666 -3.5,-1.832 -3.167,-1.168 -4.166,1.834 -3.5,3.5 -2.5,2.5 -1.417,4.916 -2.917,2.918 -3.833,2.666 -5.333,2.5 -4.084,4.084 -2.083,2.082 -5.333,0 -4.834,1.5 -6.833,0 -5,0.668 -4.5,-1.5 -1.334,-2.5 -2.333,-2.334 -6.333,0 -5.833,-0.834 -2.334,-1.5 -7.666,1.084 -4.751,0 -3.91601,3.916 -4.333,1 -4.167,1.168 -6,-0.5 -4.082,-1.75 -2.584,-2.584 -2.416,-5.084 -3.084,-3.082 -4.334,-1.666 -4.166,0 -4.75,1.248 -3.25,-3.248 -6.5,0 -3.834,-2.834 -1.917,1.916 -2.583,2.584 -2.083,4.25 -2.25,2.25 -0.667,4.334 2.084,2.5 0,3.748 2.916,2.918 0,4 -3.916,2.584 -3.75,3.75001 -3.167,0 -4.833,0 -4.5,-1.16801 -4.667,0.83401 -3.333,-1.00001 -4.834,-1.668 -2.666,-2.666 -3.167,-3.166 -3.833,-1.166 -4.5,1.832 -2.834,-2.834 -3.583,-1.582 -2.917,2.916 -3.666,0 -1.167,3.5 -4.333,0 -5.5,3.5 -3.334,3.33401 -3.333,0 -0.667,3.5 -3.916,0.916 -2.75,2.75 -5,-0.166 -4.167,2.332 -2.167,2.168 -4.833,-0.834 -1.5,-2.5 -1.833,-3.334 -0.917,-3.416 -2.583,2.584 -4.333,1.666 -4,-1.334 -4.5,-1.166 0,-4 -3.5,-2.16601 -1.333,-3 -2.833,-1.834 -0.667,-4 -2.333,-2.166 -3.12501,-1.375 -2.042,-2.041 -4.25,0 -2.083,2.082 -4.167,0.668 -1.668,-1.668 -3.666,0.666 -2,-2 -1.833,-1.832 0,-2.5 -1.833,-2.166 -2.668,0.832 -1.833,3.834 -3.667,0.666 -2.167,-4.332 -1.167,-3.834 -0.833,-4.334 -2.833,-5 0,-4 -2.667,-2.5 0,-5.5 -2,-6.666 -2.833,-2.834 -1.833,-1.832 -1.917,-4.084 -2.083,-2.084 -2.833,-1.166 0,-3 2.333,0 2,-2.666 -0.833,-2.334 -3,0 -2.5,2.5 -3.5,0.166 -2.583,0.084 -2.75,2.75 -4.667,1.334 -4,2.166 -1.834,-2.666 -3.5,1.666 -2.833,0 1,-4.5 4,-1.834 0,-2.332 -3.333,0 -3,-1.834 -1.833,1.834 -3.333,-1 1.083,-3.918 -2.417,-2.416 -3.333,2 -3.667,-1 -0.917,-2.916 2.084,-2.084 0,-3.166 0.833,-2.33403 -1.333,-4.166 -2.5,-1.168 -3,0 -1.5,-3 -4.167,0 -3.333,-2 -3.667,-0.334 -2,2.834 -4.167,0 -3.667,1 -3,-1.666 -3.667,0.666 -4.5,0 -4.333,-2.25 -1.75,0 -1.917,1.916 -3.333,0.668 -3.167,-1.668 -2.833,0 -3.833,-1.166 -5.667,0.166 -4.167,-0.832 -3,0.832 -2.667,-2.332 -3.833,-2 -3.5,0 -1.167,3.666 1.167,2.5 -2.333,2.334 1.833,1.166 1.833,1.834 2.25,2.25 -2.083,2.08203 -2.333,0 -2.833,-2.83203 -4.333,0.166 -2.83301,1.166 1.16701,4.16803 -1.16701,3 -2.833,0.832 -3.333,-0.832 -1.333,3.5 1.083,2.416 2.333,2.334 1.583,1.582 0.667,2.834 2.333,2.334 -2.333,3.166 -2.167,2.166 -3.667,0 -3.75,0.25 -1.917,-1.916 -1.333,-2.709 -1.708,0 -1.792,1.793 -2.917,0 -3.25,-3.25 -0.625,-1.875 -2.458,-2.459 0,-4.25 -2.084,-2.084 -3.833,0 -3.167,1.168 -1.167,-2.5 -3.167,-2.5 -2.833,-1.5 -3.833,1.834 -3.5,0.5 -2.833,-0.834 -2,-3.834 -2.833,-2.50003 -2,3.33403 -2.167,0 0,-2.666 2,-2.00003 -1.333,-2.834 -1.667,-4.334 -0.667,-4.5 -2.5,-3 -4,-1.5 -1.166,-2.832 -2.167,-2.168 -4,0.668 -2.333,0 0,-3.168 -1.167,-3.332 -4.083,-0.752 -2.083,2.084 -3.833,1.334 -3.333,-1.834 -3.5,0 -1.667,2.5 -3.5,0 -3.833,0 -0.835,1.834 -2.167,2.166 -0.333,3.166 -4.083,-0.748 -2.417,-2.418 0,-3.334 1.084,-3.25 -1.75,-1.75 -2.834,0 -1.167,2.668 -2.167,1.582 -3.25,0 -2.583,2.584 -2.167,2.166 0,3 -2.833,1.168 -3,-0.168 -2.167,2.168 -2.667,1.832 1.083,3.25 2.417,2.418 -1,4.332 -2.167,2.168 2.167,1.33203 3.167,3 2,2 -0.833,4.334 0.917,5.666 0,4.584 -1.75,1.75 -1.667,-1.834 -2.5,-0.332 0.333,3 1.417,2.916 2.083,2.084 -1.667,1.666 -2.833,0.334 -2.333,0 -1.833,0 -1.5,0 c 0,0 -2,0.25 -3.583,0.25 -1.583,0 -1.25,-1.25 -1.25,-1.25 l -2.5,-0.668 -1.166,-1.166 -3,-0.5 0,2.334 -2.333,1 -2.833,3.332 -3.167,0 -3.5,1 -2.042,-0.541 -1.708,1.709 0,2.75 1.75,1.75 1,3.166 -0.833,3.166 -0.75,2.918 -1.917,1.916 0,1.166 -1.667,1.5 -3.667,6 0,4.668 1,5.666 -0.667,4.334 0.333,5.332 -4,1.834 -2.667,-1.166 -3.833,1.332 -3.667,-0.832 -0.5,-3.168 -1.833,-5.5 -0.333,-4 -2.667,-1.832 0,-2.168 -1.333,-3.5 -2.333,-3 1.5,-2.5 1,-2.832 -2.5,-2.668 -0.833,-3 -2.833,-0.332 -0.583,-1.75 -2.085,-2.084 -3.667,-0.5 -2.333,-2.334 -0.667,-5.332 -2.333,-2.168 0.667,-3.332 -2.833,-2.334 -1.5,-3.832 -2.5,-1.168 -3.667,-2.5 -1.167,-4 -2.5,-3.832 -0.833,-3.334 -1.833,-0.334 -1.333,-1.666 -1.667,-2.334 -2.167,0.334 -1.333,-4.00003 0.5,-7.666 -0.667,-5.668 -1.333,-2.832 -1.667,-2.5 0.333,-5 -2,-1.834 -1.333,-2.666 1,-3 -0.833,-3.334 1.833,-1.834 2,-0.332 2.667,3.332 2.5,0.834 1.167,-2.5 2.833,-1.166 3.833,-0.168 2,0 2.5,0.834 0.5,-4.166 -1.333,-2.5 0.667,-2.168 2,0.334 1.833,1.334 2,1.832 1.5,-1.5 2.333,1 3.833,0.5 2.833,1.168 0.667,-3 -2,-1.5 -2.833,-0.668 -1.833,-1.832 -2,-0.668 2.5,-2.666 3.666,-1.666 3.167,1.332 2.833,-1.166 2.667,2.834 4,4.332 3.667,-3.666 2.5,-1.5 -0.667,-3.668 2.333,-2.332 2.333,0.334 -0.167,-2.668 6.167,-0.832 1.167,-2.834 1.333,-1.666 -2.833,-1.334 0,-3.5 -2.667,-3 -1,-3.834 -2.5,-1.5 -2.667,-3 1,-3.5 -1,-5.167 -3.166,-2.332 -3.667,-2.833 -1.167,-3.834 -2.5,-2 -0.833,-2.333 2.167,-2.5 1.667,-3.667 0,-3.5 -1.833,-3.333 -1.833,-2.833 1.667,-1.333 1,-2.5 2,0 1.5,-1.333 1.167,-4.5 0.333,-2.667 -1.334,-3.333 -1.834,-1.834 -2.5,-0.333 -1.833,-2 -1.5,-2.167 -2.25,1.916 -1.75,-1.75 -1.5,-2.5 1.5,-2.667 3.167,-3.167 2.167,-2.5 0.833,-3 2.5,-0.167 1.833,2 1,2.5 3.333,1.168 3.167,-1 0.833,-3.333 1,-3.667 -2.5,-2.5 1.667,-1.167 -0.167,-2.833 1,-4 1.833,-4.333 1.333,-3.667 3.333,-1 1.167,-2.5 3.167,-2.667 0,-5.667 -2.833,-2.666 -3.167,-0.833 1,-2.5 0.833,-2.667 -2.333,-2.333 -1.5,-3.333 0.5,-2.333 3.167,-3.167 1.833,-3.333 -0.833,-3 2.667,-0.667 4,-2.5 0,-3.5 1.667,-2 4.166,-0.167 1.833,-2.167 0.167,-2.5 3.5,-1.333 2.833,-3.833 3.833,0.167 3.333,-2 4.5,1 0.667,-2.5 1.5,-1.5 2.833,1.333 2.333,2.5 3.668,1.166 1.333,3 1.333,3.333 2,-2 -0.333,-4.833 -3,-2.667 0,-5.667 2.667,-0.666 0.833,-0.833 -3.667,-1.5 -2.167,-2.5 37.333,-0.167 7,-2.5 0,-4.333 1.167,-11 4.667,0 4,-3.167 0,-4.333 3,-1.167 0,-5.667 2.667,-0.167 5.833,-4.667 2.833,1.333 6.167,-11.5 0.417,-3.083 5.083,-5.083 8.5,0 2.667,-4.667 0,-9 5.333,-2.667 7,-3.5 4.833,1.833 2.834,0 2.333,2.333 2.862,-1.994 -0.696,3.494 2.833,-0.333 4,0.167 0,2.667 0.833,3 -1.833,-1.167 -1.917,-1.917 -1.75,1.75 0.833,3.167 0,3.167 2.833,1.5 2.167,2.167 0,3.5 2.417,1.167 0,3.917 2.75,2.75 1.333,4.667 0,4.833 -0.833,4.167 1,2.333 0.083,5.083 2.917,2.917 -0.167,3.667 -0.667,6 -2.917,5.083 -4.417,4.417 -4.667,0 -5.167,1 -4.5,-1.667 -4.917,-2.75 -3.079,-3.084 0,-4.5 -3.167,-3.167 -1.5,-3.5 -1.167,-3.333 -2.166,-3.666 -1.167,-6.167 -2.333,-1 0.75,-3.75 1.917,-1.917 -2.333,-2.333 -1.083,2.917 -1.583,1.583 0.667,3.667 0.083,4.25 -1.833,1.833 2.417,2.417 -0.667,3.667 -2.333,5.167 -4.083,1.25 -3.25,3.25 -1.25,5.917 -3.083,3.083 1,3.5 1.5,4.333 -2.417,4.25 3.417,3.417 3.664,3.666 4.167,-3 0.833,-4.166 -2.167,-2.167 0.333,-3.667 0,-2.833 2.833,-3 2.833,0 1,7.5 0.917,4.917 2.917,2.917 1.833,3.833 4.75,1.417 1.417,-1.417 -1.167,-2.833 2.833,-2.333 0.167,-5.833 5.167,0.833 4.833,-1.833 4,2.167 4.5,-1.417 3.083,0 1.918,1.915 2.833,4.333 -2.333,2.333 0,3.667 2.083,-2.583 2.917,-2.917 4.00001,-0.833 3.333,-4.833 0,-4.167 1.333,-2.833 4.333,-2.167 0,-2.667 4.167,-2.5 0,-4.167 -0.667,-4 2.833,0 0.917,2.083 3.75,3.75 2.833,4.333 0,5.833 -1,3 -1.5,1.5 -2.5,-2.5 -3.5,-0.833 -5.333,1.833 0,4.333 1.333,4 0,3.333 3.833,1 3.667,1.667 4.167,-2 0,-3 4.333,-1 4.167,2 -0.667,-2.667 6.5,1.167 3.5,-0.667 6.333,0.833 3.667,0 1.833,3.333 1.667,0 0,-3 5.333,-1.667 2.835,0 1.167,4.333 -3.167,0 -1,3 -2.5,0.833 3.833,3.5 2.667,0 5,-2.167 4.75,0.917 5.167,5.167 1.75,-1.75 3.5,0 4.417,-1.417 1.75,1.75 -0.5,2.333 -2.667,1.833 0,2.833 3.167,2.667 0.25,-3.083 1.417,-1.417 3.333,0.833 0,-2.667 3.167,-0.5 0.667,-4 -0.5,-4.833 3,-1.5 2.583,-0.75 3.083,3.083 1.333,-1.333 3.417,4.25 3.917,3.917 3.167,3.167 2.083,4.25 3.917,3.917 2.667,4.167 2.833,3.833 0,3.333 2.332,3.671 3.333,-2 0,-3.5 3.833,-3.5 -2.667,-0.833 -1.833,-4.333 0.667,-4.667 -3.167,-2.167 -1.75,-3.583 1.583,-1.583 3.333,-1.667 0,-2.667 0.833,-4 1.5,-2 0,-2.5 -2.167,-0.667 1.167,-3.333 1.833,-2.333 3.333,-1.167 3.583,-1.75 1.25,-1.25 2.833,-2.833 2.167,-4.833 1.667,-4 1.833,-4 3.167,-1.667 2,2.833 4,0 2,2 3.5,0 1.5,5.667 -1.667,1.667 -0.75,6.083 -4.75,4.75 -1.333,4.333 2.833,2.5 -1,5.667 -0.833,4.5 -3.333,5 -1.167,7.167 -1.833,6.333 -1.333,3.167 1.25,4.417 2.917,2.917 -0.5,2.667 -3.667,2.833 -0.667,6.167 -3.667,1 -4.333,4.333 -2.5,3.667 -2.333,1.333 -4.167,-0.833 -2.5,1.667 -2.75,-1.75 -1.75,-1.75 -2.5,-0.833 0,3.167 2.5,3.833 2.5,1.167 3.333,2.333 2.833,-0.167 2,2.833 3,0 c 0,0 1.25,-2.25 0.583,-2.917 -0.667,-0.667 1.75,-1.75 1.75,-1.75 l 2.167,0 1,-1 4.167,-1.167 3.333,-1.833 0,-3.5 1.5,-1.5 2.583,-2.583 2.083,-2.083 1,-4 -0.833,-3.5 -0.333,-3.167 2.25,-2.25 2.25,-2.25 3.5,0 3.833,-0.5 1.083,3.25 1.583,1.583 2,5.167 -2.663,2.665 0.167,4 0,2.5 3.333,3.333 3.833,0.833 0,-2.333 -3.75,-1.083 -1.417,-1.417 0,-2 -0.333,-3 2.667,-0.833 1,-2.167 -1,-3.167 1.167,-2.667 -1.667,-3.333 -2.167,-2 -1.333,-1.333 -4.083,-1.417 -2.333,-2.333 -1.917,1.917 -2.5,1.167 -1.333,-1.833 -3,0 -0.5,-3.167 2,-2 -0.5,-5.333 2.333,-3.667 1.5,-4.333 3.333,-3.333 -1.167,-3.667 -1,-3.167 0.417,-3.416 -2.417,-2.417 2.667,-2.667 4.167,-4.167 3.5,0 2,-3.167 1.333,-3.5 -1.167,-2.833 1.167,-2.5 2.667,0 -0.833,3.5 0,4.833 -0.667,4.333 -3,3 0,4.167 0,3 3.5,2.667 2,1.667 2.583,-1.583 2.583,2.583 2.833,2.667 0,-2 -1.083,-2.583 -1.917,-1.917 -3,-1.5 0,-1.333 -2.5,-2.5 -1.166,-3.668 3.5,-2.333 1.667,1.667 2.667,2.667 2.00001,-1.833 -0.66701,-2.167 -0.25,-1.917 1.91701,-1.917 3.333,0.667 2.75,-0.417 2.25,2.25 4.333,2.333 -1.167,3.333 1.083,1.083 2.917,2.917 4.5,0 0.667,-2.667 -1.833,-2.5 0.167,-2.333 -3.167,-1.167 -2.333,-3.833 -1.334,-1.333 1,-4 1.5,-3.333 -1.333,-1.333 -0.833,-4.167 3.333,-3 7.833,0 4,1.5 0,-1 6.5,0 4.333,-1.833 3.166,0 1.667,-1.667 -1.667,-2.5 -2,-0.667 -1.667,-1.667 c 0,0 0.667,-0.667 1.917,-1.917 1.25,-1.25 1.25,1.25 1.25,1.25 l 2,-0.5 -1.333,-1.5 0.917,-2.083 -1.417,-1.417 1.667,-2.333 2.333,-1.833 -2.333,-0.167 -0.167,-2.5 4.667,0.167 1.833,-3.833 4.583,-1.75 1.75,-1.75 6.25,-0.917 1.583,-1.583 4.5,-1.333 1,-1.167 -3,-1 1.667,-1.667 4.333,-1 3.667,-0.5 0.833,-1.833 3,-0.5 -1.583,3 0,2.417 2.083,-2.083 5.168,0.166 0.5,-2.667 3.333,-0.667 3.333,0.667 -1.5,-2 -2,-1.5 -1,-1.833 3.667,0 3.833,-1.167 1.167,0 -0.333,-2.833 -1.334,-1 0,-4 0.834,-2.667 2.5,-6.167 3,-2.167 2.666,-2.833 3.334,2 2.5,-0.333 0.75,3.417 -2.584,2.583 -2.166,2.833 5.291,0.292 1.042,-1.042 3.25,0 2.417,2.417 -2.167,2.167 c 0,0 -0.167,2.167 0.833,2.167 1,0 3.667,1.167 3.667,1.167 l 0.833,-2.833 -1.5,-1.5 3.667,-2 3.333,0 3.417,-2.417 1.917,1.917 2.583,-1.25 1.917,1.917 1.666,3.333 2,1.667 1.167,-1.333 1.75,1.75 2.25,2.25 -0.333,3.5 -3.334,-0.667 1.334,1.333 3.333,1.833 2.083,3.583 -1.916,1.916 0,3.333 -1.667,2.333 -1.583,3.25 -1.917,1.917 -3.333,4 0,1.667 -1,4.667 -2.5,2.5 -1,5.167 -4,1 -1.25,3.75 -2.75,2.75 -0.667,4.333 -0.833,3 3,-1.333 -0.667,-3.333 3,-1.833 c 0,0 2.667,-0.833 4.167,-0.833 1.5,0 2,-3 2,-3 l 2.833,-2.333 2.667,-1 1.583,-3.083 -1.25,-1.25 -2,-0.167 0.167,-1.335 -0.167,-2.667 2.5,-0.167 2,0 2.833,0.667 3.334,1.333 0.666,-2 2.084,-2.917 1.75,1.75 0,3.333 2,2.833 2.333,0 -2.333,-2.165 1.583,-1.583 3.083,-3.083 4.167,-2.167 6.333,-1.167 5,-1.5 1.251,1.917 -1.167,1.167 2.75,2.75 5.166,0 0.167,-1.333 0.5,-1.833 2,3.167 3.5,-1.333 3.50001,-3 c 0,0 3.667,-0.667 4.5,-0.667 0.833,0 0,-3 0,-3 l -0.5,-3.333 -2.5,-3.833 0.667,-3.833 0.5,-2 2,2 2.083,-1.583 1.75,1.75 2.667,1.833 0.666,-2 1.334,-0.336 1.333,1.5 1.333,-1 c 0,0 -0.166,-3.083 1.084,-3.083 1.25,0 1.583,-1.583 1.583,-1.583 l 3.667,2.833 1.166,-1.167 4,1.333 -1.333,4.083 1.916,0 1.917,1.917 0,3.167 3.167,-2 1.667,1.667 0,3.667 -2.167,0.667 -1.333,1.332 2.333,2.333 c 0,0 1.833,-0.833 1.833,-1.667 0,-0.834 1.5,1.5 1.5,1.5 l 0,2.667 3.417,-0.084 3.25,3.25 2.5,1.667 3.5,0.667 1.5,-1.5 3.833,2 0.334,-3.166 -1.667,-5.5 -1,-2.5 0,-2.333 -2.167,-2.167 0,-3 4.167,0.5 2.333,2.333 3.667,-1 4.167,0 -0.834,-4.333 2.334,-4.333 4.333,-1 3.167,-0.167 3.666,1 0,-2.5 -3.916,-1.75 1.416,-1.417 1.834,-2 3.166,0.167 2.5,-2.5 -1.166,-0.667 -2.5,-2.5 -2.834,-1.5 0,-3.667 -1.166,-1 -1.667,4.333 -2,-1.333 0,-3.5 3.667,-3.333 -0.5,-2.333 -3.5,-2.167 2.166,-2.167 3.167,0 4.667,-2.333 1.333,-3.833 6.167,-2.333 4.833,-2.167 c 0,0 0.667,0.667 0.667,1.667 0,1 -3.167,2.167 -3.167,2.167 l -1.167,4.5 2.834,-1.334 2.5,-2.5 3.166,1 -0.833,6.5 2.833,-2.667 0,-3.167 -1,-5.333 0.667,-2.333 1.5,-4.167 3.5,-1.667 5,-2.167 3,2.167 c 0,0 -1.417,1.917 -2.5,3 -1.083,1.083 1.167,1.834 1.167,1.834 l 3.666,0 2.334,-2.667 c 0,0 2.666,2.833 3.166,3.333 0.5,0.5 -0.5,-3.833 -0.5,-3.833 l 4.5,-2.5 3.167,1.667 3.5,-0.166 3.167,-3.167 3.333,-4.167 0,-4.833 4.167,-6.167 3.5,-3.5 3.166,-3.833 5.5,-0.833 4.584,-0.25 2.25,2.25 4.666,4.667 4.167,-1.833 3,-2.417 3.25,0 -1.583,-1.584 0,-2.334 3.166,-3.166 0,-5.5 1.5,-2.833 2.5,0 2.167,-2.167 0,-3.333 4.167,-3 1,-4 -1.667,-1.667 0.667,-2 -2.333,-3.333 1.833,-3.334 1.75,-1.75 3.16701,3.167 -2.41701,2.417 2.50001,2.5 3.833,0 2.667,-1 3.667,-1.667 3.333,-0.833 0.833,-2.667 -1,-2.667 -1.833,-0.333 -5.667,-2.5 -4.166,0.667 -1,-2.333 -3.33401,0 0,-1.833 0.834,-3.167 3.00001,-1.5 0.333,-3.5 2.667,-1.5 2.333,0 -1,-2.833 1,-3 2.833,-4.168 z"
       inkscape:connector-curvature="0" />
    <polygon
       style="fill:#b3b3b3;fill-opacity:1;fill-rule:nonzero;stroke:#000000;stroke-opacity:1"
       id="polygon3174"
       points="884.477,395.399 885.053,392.513 883.467,390.207 880.727,390.784 880.727,390.784 879.285,392.37 879.285,394.388 879.285,396.551 881.736,395.542 883.035,396.84 "
       transform="translate(25.9971,7.9998)" />
    <path
       style="fill:#b3b3b3;fill-opacity:1;fill-rule:nonzero;stroke:#000000;stroke-width:1;stroke-opacity:1"
       id="path3176"
       d="m 946.81214,383.9308 -1.154,0.289 -0.864,-2.452 0,-2.163 3.749,1.009 1.874,0.865 1.01,2.308 2.019,2.019 3.605,0.721 0.865,2.307 4.037,2.596 2.163,0 1.73,2.451 1.442,3.894 2.235,2.234 4.254,4.399 2.739,0.721 3.75,1.442 3.605,3.173 4.903,2.739 3.172,2.74 4.183,2.163 3.604,2.163 2.30796,1.874 4.0371,1.587 -0.576,1.875 -1.4411,1.441 -2.74,0.865 -2.16296,0 0.577,3.028 -0.577,2.163 0,1.73 2.45096,3.75 c 0,0 2.309,2.594 1.875,3.027 -0.434,0.433 0.145,4.471 0.145,4.471 l 1.8751,1.875 2.884,2.885 2.451,1.586 3.749,0 2.163,2.162 2.451,0 1.298,2.74 3.173,0.145 1.946,-1.947 3.389,1.947 2.02,2.596 c 0,0 0.722,1.73 0,1.73 -0.722,0 -4.615,-1.875 -4.615,-1.875 l -1.658,1.658 -3.677,0 -1.153,2.957 0.721,2.883 2.307,2.307 1.73,3.75 -2.307,1.875 -1.875,-2.307 -2.451,-2.453 -4.326,-4.037 0,-2.74 -2.884,-2.883 -2.739,-2.74 -1.875,-2.451 -2.3081,-4.471 -2.884,-2.74 -3.02796,-1.73 -2.884,-0.865 -2.453,-5.191 -5.335,-7.354 -4.326,-4.327 -3.604,-3.604 -3.174,-4.326 -2.019,-3.316 -5.479,-2.452 -4.326,-1.874 -2.596,-0.289 -3.461,-4.759 0,-2.162 -3.749,-3.75 -2.019,-3.749 -4.038,-1.298 1.01,-2.884 0,-2.163 3.316,1.009 0.577,-2.884 -1.946,-1.946 0,-1.082 -1.911,-1.912 -2.777,-0.973 z"
       inkscape:connector-curvature="0" />
    <polygon
       style="fill:#b3b3b3;fill-opacity:1;fill-rule:nonzero;stroke:#000000;stroke-opacity:1"
       id="polygon3178"
       points="1045.551,450.77 1042.666,451.203 1042.666,451.203 1043.243,454.23 1043.531,457.115 1044.686,457.547 1044.686,455.24 1045.551,453.365 "
       transform="translate(25.9971,7.9998)" />
    <polygon
       style="fill:#b3b3b3;fill-opacity:1;fill-rule:nonzero;stroke:#000000;stroke-opacity:1"
       id="polygon3180"
       points="1052.616,454.23 1054.491,455.24 1054.491,453.076 1052.616,452.934 1052.616,452.934 "
       transform="translate(25.9971,7.9998)" />
    <polygon
       style="fill:#b3b3b3;fill-opacity:1;fill-rule:nonzero;stroke:#000000;stroke-opacity:1"
       id="polygon3182"
       points="1049.012,439.666 1048.146,435.053 1049.732,433.467 1049.444,430.148 1046.992,429.428 1046.271,433.178 1047.209,434.113 1046.416,436.926 1046.704,441.252 1046.704,441.252 1048.435,441.973 "
       transform="translate(25.9971,7.9998)" />
    <polygon
       style="fill:#b3b3b3;fill-opacity:1;fill-rule:nonzero;stroke:#000000;stroke-opacity:1"
       id="polygon3184"
       points="1050.309,422.938 1050.886,425.391 1052.04,423.66 1051.03,422.217 1051.03,422.217 "
       transform="translate(25.9971,7.9998)" />
    <polygon
       style="fill:#b3b3b3;fill-opacity:1;fill-rule:nonzero;stroke:#000000;stroke-opacity:1"
       id="polygon3186"
       points="1055.067,408.374 1055.645,411.546 1054.635,413.853 1052.761,413.42 1052.761,413.42 1053.481,409.671 1052.473,407.365 1053.049,404.913 1054.996,402.965 1055.5,405.634 "
       transform="translate(25.9971,7.9998)" />
    <polygon
       style="fill:#b3b3b3;fill-opacity:1;fill-rule:nonzero;stroke:#000000;stroke-opacity:1"
       id="polygon3188"
       points="975.18,204.615 974.17,202.596 975.18,199.279 975.18,195.242 972.439,194.088 970.709,195.098 970.709,195.098 970.709,198.27 970.421,201.154 972.151,202.308 973.305,203.75 973.449,206.345 975.757,207.21 "
       transform="translate(25.9971,7.9998)" />
    <polygon
       style="fill:#b3b3b3;fill-opacity:1;fill-rule:nonzero;stroke:#000000;stroke-opacity:1"
       id="polygon3190"
       points="1024.785,210.96 1025.795,213.123 1029.256,213.123 1032.717,213.123 1034.88,210.96 1032.14,210.095 1029.399,211.249 1026.804,210.239 1026.804,210.239 "
       transform="translate(25.9971,7.9998)" />
    <polygon
       style="fill:#b3b3b3;fill-opacity:1;fill-rule:nonzero;stroke:#000000;stroke-opacity:1"
       id="polygon3192"
       points="1035.891,319.111 1034.521,320.481 1036.107,322.068 1037.044,324.014 1036.756,326.61 1036.611,329.926 1038.125,331.44 1039.784,330.503 1039.784,327.042 1041.298,325.529 1040.072,322.572 1038.054,320.553 1038.197,317.958 1036.756,316.516 1036.756,316.516 "
       transform="translate(25.9971,7.9998)" />
    <polygon
       style="fill:#b3b3b3;fill-opacity:1;fill-rule:nonzero;stroke:#000000;stroke-opacity:1"
       id="polygon3194"
       points="1042.956,341.174 1044.398,341.895 1045.408,340.598 1042.956,339.011 1042.956,339.011 "
       transform="translate(25.9971,7.9998)" />
    <polygon
       style="fill:#b3b3b3;fill-opacity:1;fill-rule:nonzero;stroke:#000000;stroke-opacity:1"
       id="polygon3196"
       points="1056.079,381.119 1054.637,381.263 1054.637,381.263 1054.637,384.436 1054.637,387.031 1056.656,387.031 1056.079,384.58 1056.079,382.993 "
       transform="translate(25.9971,7.9998)" />
    <polygon
       style="fill:#b3b3b3;fill-opacity:1;fill-rule:nonzero;stroke:#000000;stroke-opacity:1"
       id="polygon3198"
       points="1040.939,202.305 1039.065,202.738 1039.065,202.738 1037.19,204.036 1038.199,205.045 1039.569,203.675 "
       transform="translate(25.9971,7.9998)" />
    <polygon
       style="fill:#b3b3b3;fill-opacity:1;fill-rule:nonzero;stroke:#000000;stroke-opacity:1"
       id="polygon3200"
       points="846.898,47.643 848.69,45.851 850.041,43.398 848.553,41.799 850.758,38.601 850.372,35.128 850.372,30.993 848.222,29.284 848.222,29.284 846.898,28.788 845.741,30 843.205,31.324 841.138,33.391 841.33,36.947 840.448,37.83 840.889,40.696 842.543,43.122 844.252,47.092 "
       transform="translate(25.9971,7.9998)" />
    <polygon
       style="fill:#b3b3b3;fill-opacity:1;fill-rule:nonzero;stroke:#000000;stroke-opacity:1"
       id="polygon3202"
       points="26.411,269.306 21.541,258.137 21.541,258.137 24.135,258.719 26.358,258.084 27.205,256.443 29.216,256.761 31.096,258.64 31.175,261.207 32.71,261.684 33.028,263.695 35.41,264.119 35.939,262.213 34.643,260.916 35.754,259.805 36.469,260.52 38.745,262.425 38.745,265.283 38.427,267.771 39.75,269.941 41.074,270.841 41.55,274.07 40.386,276.505 34.828,279.311 "
       transform="translate(25.9971,7.9998)" />
    <g
       style="fill:#b3b3b3;fill-opacity:1;fill-rule:nonzero;stroke:#000000;stroke-opacity:1"
       id="Subjects_Outline-8"
       transform="translate(25.9971,7.9998)" />
    <polygon
       style="fill:#aa6ca6;fill-opacity:1;stroke:#000000"
       id="KC"
       transform="translate(26.000002,8.0000247)"
       points="53.25,517.182 54.125,518.682 53.188,520.744 50.875,521.682 49.25,521.494 47.25,523.494 45.333,524.287 45.333,524.287 42.833,523.119 39.167,520.619 38,516.619 35.5,512.787 34.667,509.453 36.688,507.432 39.063,507.057 40.719,505.4 42.375,505.4 43.313,507.432 44.75,509.557 48,509.557 50.5,506.432 52.5,507.057 52.5,509.682 54.313,510.932 54.75,512.994 55.688,514.369 52.75,514.369 51.938,515.869 " />
    <polygon
       style="fill:#aa6ca6;fill-opacity:1;stroke:#000000"
       id="SE"
       transform="translate(26.000002,8.0000247)"
       points="56.497,534.625 55.004,535.529 53.557,535.213 51.333,535.953 51.333,535.953 52,541.285 54.333,543.619 58,544.119 60.083,546.203 60.667,547.953 62.285,545.297 64.817,545.297 65.043,543.533 64.319,540.91 65.043,536.977 67.256,536.115 70.667,536.203 70,533.371 66.807,530.494 65.541,531.596 65.541,533.586 64.319,534.807 61.29,534.988 60.272,536.004 58.622,534.625 " />
    <polygon
       style="fill:#aa6ca6;fill-opacity:1;stroke:#000000"
       id="IN"
       transform="translate(26.000002,8.0000247)"
       points="62.285,545.297 64.817,545.297 65.043,543.533 64.319,540.91 65.043,536.977 67.256,536.115 68.417,538.287 71.063,540.346 70.417,542.871 70.417,542.871 68.841,546.338 66.852,549.502 64.333,551.285 63.5,548.285 60.667,547.953 " />
    <polygon
       style="fill:#aa6ca6;fill-opacity:1;stroke:#000000"
       id="DA"
       transform="translate(26.000002,8.0000247)"
       points="70.667,569.785 68,567.953 68,565.785 66.667,562.285 64.333,559.285 65.833,556.785 68.706,556.424 70.514,555.021 73.273,555.248 75.036,553.938 77.795,555.52 78.835,551.631 81.729,548.104 84.758,546.43 86.522,545.842 86.206,542.045 82.814,541.727 80.915,539.195 78.5,536.621 79.5,533.953 77.75,533.121 77.75,531.703 79.833,531.703 81,530.621 80.208,529.244 81.5,527.953 83.667,528.703 86.167,527.871 88.833,526.203 91.089,527.844 92.22,529.563 94.029,530.195 94.843,532.322 94.625,535.244 94.625,535.244 92.917,536.953 92.917,539.703 94.667,541.453 95.667,544.619 94.833,547.785 94.083,550.703 92.167,552.619 92.167,553.785 90.5,555.285 86.833,561.285 86.833,565.953 87.833,571.619 87.167,575.953 87.5,581.285 83.5,583.119 80.833,581.953 77,583.285 73.333,582.453 72.833,579.285 71,573.785 " />
    <polygon
       style="fill:#fc8b8b;fill-opacity:1;stroke:#000000"
       id="KL"
       transform="translate(26.000002,8.0000247)"
       points="115.031,510.025 116.188,505.807 118.125,504.744 118.563,502.807 119,500.682 115.313,500.557 113.688,498.432 113.375,495.244 113.938,492.682 114.375,489.932 112.438,488.619 111.48,485.344 108.46,484.646 106.718,482.904 106.718,480.813 105.093,480.232 103.931,483.484 102.189,484.182 100.505,482.496 98.473,483.252 96.673,481.453 93.711,484.182 93.711,487.783 95.813,487.932 98.25,486.619 98.25,489.057 96.625,492.432 93.188,494.932 89.375,494.932 85.875,498.557 83.875,498.057 83.063,498.869 81.25,498.182 80,496.932 78.813,491.932 76.75,491.369 75.188,489.807 75.188,487.619 74.313,485.244 72.375,485.244 72.375,486.869 71.188,488.057 68.125,488.057 66.5,486.932 64.375,488.619 66.25,489.557 67,491.744 68.688,491.744 70.063,491.244 70.813,493.432 72.156,494.775 75.125,494.244 77,495.037 77.333,497.453 78.917,499.287 79.417,501.371 81,502.953 82.083,505.953 80.917,508.203 82.167,510.537 83.875,512.244 85.167,513.953 85.167,515.953 86.958,517.744 87.417,520.287 88.833,522.371 88.833,526.203 91.089,527.844 92.22,529.563 94.029,530.195 94.843,532.322 94.625,535.244 96.667,535.785 96.667,535.785 100.167,534.785 103.333,534.785 106.167,531.453 108.5,530.453 108.5,528.119 106.688,526.869 104.438,526.807 103.938,525.494 109.375,521.682 109.375,520.119 108.313,519.057 108.313,517.057 107.125,515.432 108.438,514.119 110.313,514.932 110.625,516.182 111.813,516.182 112.125,514.057 115.625,514.369 116.688,511.682 " />
    <polygon
       style="fill:#01bee7;fill-opacity:1;stroke:#000000"
       id="AL"
       transform="translate(25.997713,8.0006832)"
       points="472.75,569.869 475.625,569.869 479.625,565.744 479.625,563.244 481.625,561.244 484.75,563.244 486.375,561.119 488.125,561.119 489.438,559.182 487.625,557.369 489.125,554.744 491.75,553.494 495,556.369 498.25,556.369 501.125,557.869 502.75,557.869 502.875,560.869 500.813,562.932 498.375,565.369 499.125,568.619 497.5,570.244 500.938,573.682 503.625,573.682 505.25,570.369 507,570.369 507.5,574.244 508.625,577.869 512.438,581.682 515.5,584.619 514.75,586.994 512,587.619 510.75,588.869 513.25,591.369 513.25,594.119 514.5,596.453 514.5,596.453 510.584,597.369 507.833,600.119 502.833,599.953 498.667,602.285 496.5,604.453 491.667,603.619 490.167,601.119 488.333,597.785 487.417,594.369 484.833,596.953 480.5,598.619 476.5,597.285 472,596.119 472,592.119 468.5,589.953 467.167,586.953 464.333,585.119 463.667,581.119 466.938,580.869 466.938,577.932 465.5,576.494 463.25,574.244 464.875,572.619 468.375,571.494 " />
    <polygon
       style="fill:#01bee7;fill-opacity:1;stroke:#000000"
       id="TY"
       transform="translate(26.000002,8.0000247)"
       points="543,581.285 539.417,579.703 536.5,582.619 532.834,582.619 531.667,586.119 527.334,586.119 521.834,589.619 518.5,592.953 515.167,592.953 514.5,596.453 513.25,594.119 513.25,591.369 510.75,588.869 512,587.619 514.75,586.994 515.5,584.619 512.438,581.682 508.625,577.869 507.5,574.244 507,570.369 508.5,568.869 511.375,569.619 514.625,569.869 517.813,566.682 517.813,562.994 521.375,561.119 524.25,563.994 528.125,565.369 531.875,565.369 535.25,567.119 537.875,567.119 541.375,565.619 546.25,561.369 549.75,560.369 549.75,556.119 552.25,553.619 552.25,550.869 556.125,549.869 557.125,543.869 558.75,542.244 563.125,542.994 566.313,539.807 570,539.994 571.438,538.557 573.25,539.244 574.125,537.119 577.125,537.119 579.625,538.994 583.375,539.494 586.5,542.494 588.625,543.494 592.25,543.494 593.75,541.994 595.5,543.744 596.875,545.119 594.938,547.057 594.938,549.994 593.156,551.775 593.75,554.619 595.375,556.244 595.583,559.369 595.583,559.369 593,561.953 590.917,566.203 588.667,568.453 588,572.787 590.084,575.287 590.084,579.035 593,581.953 593,585.953 589.084,588.537 585.334,592.287 582.167,592.287 577.334,592.287 572.834,591.119 568.167,591.953 564.834,590.953 560,589.285 557.334,586.619 554.167,583.453 550.334,582.287 545.834,584.119 " />
    <polygon
       style="fill:#aa6ca6;fill-opacity:1;stroke:#000000"
       id="CE"
       transform="translate(26.000002,8.0000247)"
       points="70.667,536.203 72.333,535.621 73.333,534.287 74.5,534.203 74.5,535.371 75.75,536.621 78.5,536.621 81.052,539.377 81.052,539.377 82.814,541.727 86.206,542.045 86.522,545.842 84.758,546.43 81.729,548.104 78.835,551.631 77.795,555.52 75.036,553.938 73.273,555.248 70.514,555.021 68.706,556.424 65.833,556.785 66.833,553.953 64.333,551.285 66.852,549.502 68.841,546.338 70.417,542.871 71.063,540.346 68.417,538.287 67.256,536.115 " />
    <polygon
       style="fill:#aa6ca6;fill-opacity:1;stroke:#000000"
       id="KB"
       transform="translate(26.000002,8.0000247)"
       points="53.557,535.213 51.333,535.953 49,533.785 49.667,530.453 46.833,528.119 45.333,524.287 45.333,524.287 47.25,523.494 49.25,521.494 50.875,521.682 53.188,520.744 55.813,521.557 58.375,522.119 59.031,524.088 62.063,527.119 64.375,526.619 65.625,527.869 67.5,529.182 66.807,530.494 65.541,531.596 65.541,533.586 64.319,534.807 61.29,534.988 60.272,536.004 58.819,534.625 56.497,534.625 55.004,535.529 " />
    <polygon
       style="fill:#37ce04;fill-opacity:1;stroke:#000000"
       id="MO"
       transform="translate(26.000002,8.0000247)"
       points="171.163,421.611 169.557,419.919 166.936,421.78 164.569,421.526 162.371,419.329 160.342,417.299 156.961,417.299 156.031,418.229 152.65,415.186 152.65,411.974 149.986,409.311 148,409.311 145.042,408.085 143.521,406.564 141.661,407.24 141.407,405.126 143.309,403.816 144.788,402.336 144.788,401.027 146.69,401.027 149.269,398.449 151.297,397.942 152.903,396.335 152.903,396.335 154.721,398.153 157.806,398.153 158.567,400.477 160.173,402.083 160.173,405.295 162.287,407.409 163.132,410.114 165.837,410.875 167.105,408.846 171.078,408.761 171.923,407.917 174.713,407.747 174.291,409.776 175.516,411.001 177.249,411.001 178.179,412.988 176.488,415.44 177.333,417.214 175.938,418.61 175.474,421.019 " />
    <polygon
       style="fill:#37ce04;fill-opacity:1;stroke:#000000"
       id="BA"
       transform="translate(26.000002,8.0000247)"
       points="231.736,440.912 229.76,441.818 228.772,440.83 227.044,441.736 227.62,443.959 227.62,445.439 228.731,446.551 227.373,447.91 225.315,449.967 223.422,449.967 222.846,451.613 221.611,453.508 219.593,454.277 220.446,455.84 220.277,460.15 221.545,461.418 220.615,465.982 222.475,467.166 224.715,469.406 226.109,473.084 226.109,476.719 227.208,479 226.278,481.283 226.278,484.496 225.602,486.102 227.546,487.201 229.279,485.467 232.111,485.467 233.125,487.285 232.111,489.82 229.406,490.918 229.998,492.188 231.773,492.609 231.266,495.906 230.209,496.963 230.759,499.541 232.365,499.541 232.703,500.979 234.689,502.965 236.676,501.992 238.156,500.514 239.888,501.4 240.564,503.092 242.34,504.359 244.453,504.951 246.566,503.346 248.003,500.049 249.018,498.275 251.639,497.092 252.062,494.641 254.344,490.498 256.119,490.498 256.119,487.623 258.317,484.666 258.317,482.805 261.74,479.381 264.319,478.494 264.319,477.311 267.108,477.057 268.292,478.664 270.236,478.664 270.236,475.453 269.053,471.818 264.995,470.549 263.22,471.732 259.078,471.311 256.964,467.93 256.457,463.449 254.851,461.842 254.175,458.631 257.81,455.926 260.346,456.686 263.051,458.039 264.91,459.898 264.91,462.182 268.376,463.449 270.616,461.209 274.378,460.32 274.378,458.293 276.407,454.572 277.168,452.037 276.492,449.248 276.492,449.248 274.374,451.365 272.401,448.486 270.014,448.486 266.145,445.688 264.004,442.725 262.111,443.549 259.971,442.807 258.654,438.279 255.938,437.785 254.456,434.74 251.081,434.74 247.623,432.023 247.623,430.047 245.565,429.223 243.795,430.992 237.333,432.846 236.264,433.916 237.663,436.057 237.663,438.279 234.206,440.912 " />
    <polygon
       style="fill:#37ce04;fill-opacity:1;stroke:#000000"
       id="CU"
       transform="translate(26.000002,8.0000247)"
       points="178.179,412.988 177.249,411.001 178.684,408.575 181.753,405.944 181.753,401.851 186.578,399.074 189.501,400.536 195.641,400.536 196.079,403.605 197.979,405.505 197.103,408.136 199.003,411.645 194.91,412.668 191.109,414.861 191.109,418.954 187.893,420.124 184.97,418.954 181.689,420.207 177.333,417.214 176.488,415.44 178.179,412.988 " />
    <polygon
       style="fill:#37ce04;fill-opacity:1;stroke:#000000"
       id="ME"
       transform="translate(26.000002,8.0000247)"
       points="197.979,405.505 196.079,403.605 195.641,400.536 189.501,400.536 186.578,399.074 184.97,396.15 186.724,394.396 186.431,390.741 189.867,390.815 189.867,390.815 191.986,388.695 196.518,391.472 198.419,394.395 201.05,396.149 204.12,394.395 206.02,396.295 207.189,394.249 209.967,395.857 213.622,396.587 214.791,400.535 217.568,402.142 217.568,407.405 218.445,409.89 215.522,411.498 213.476,409.452 209.821,409.452 208.286,407.917 204.412,410.182 199.003,411.645 197.103,408.136 " />
    <polygon
       style="fill:#37ce04;fill-opacity:1;stroke:#000000"
       id="TA"
       transform="translate(26.000002,8.0000247)"
       points="209.614,439.201 206.921,439.201 205.007,441.113 200.684,436.791 199.834,434.666 197.424,432.256 196.502,428.357 195.156,427.01 192.604,428.004 187.643,423.326 185.091,422.191 181.689,423.041 181.689,420.207 184.97,418.954 187.893,420.124 191.109,418.954 191.109,414.861 194.91,412.668 199.003,411.645 204.412,410.182 208.286,407.917 209.821,409.452 213.476,409.452 215.522,411.498 218.445,409.89 218.445,412.521 219.323,416.614 222.1,419.831 225.537,420.204 227.108,422.391 230.025,423.738 231.147,425.365 233.111,425.422 233.448,428.451 235.692,430.191 233.504,431.48 233.672,432.939 236.264,433.916 236.264,433.916 237.663,436.057 237.663,438.279 234.206,440.912 231.736,440.912 229.76,441.818 228.772,440.83 227.044,441.736 227.62,443.959 227.62,445.439 228.731,446.551 225.315,449.967 223.422,449.967 221.611,453.508 219.593,454.277 217.656,452.375 219.601,450.432 216.811,447.641 214.105,447.641 212.875,444.871 213.725,442.744 " />
    <polygon
       style="fill:#37ce04;fill-opacity:1;stroke:#000000"
       id="UD"
       transform="translate(26.000002,8.0000247)"
       points="237.333,432.846 236.264,433.916 233.672,432.939 233.504,431.48 235.692,430.191 233.448,428.451 233.111,425.422 231.147,425.365 230.025,423.738 227.108,422.391 225.537,420.204 222.1,419.831 223.562,416.03 223.562,416.03 228.386,411.206 228.386,406.381 231.419,403.202 233.063,404.846 235.914,404.846 238.034,402.727 238.911,399.803 240.811,396.587 243.881,394.395 247.828,398.196 251.189,398.049 251.336,401.412 254.259,401.412 253.529,405.066 253.382,409.305 251.336,412.959 250.751,417.052 248.851,421.292 243.442,424.07 243.442,425.969 245.565,429.223 243.795,430.992 " />
    <polygon
       style="fill:#62d2c5;fill-opacity:1;stroke:#000000"
       id="KO"
       transform="translate(26.000002,8.0000247)"
       points="317.375,293.328 313.333,291.536 309.333,288.12 305.667,288.536 302.917,290.37 285.583,290.453 283.75,292.286 282.792,294.828 281.666,295.953 281.666,297.12 280.458,298.328 279,299.786 279.708,301.245 281.583,303.12 282.417,304.703 281.333,306.953 281.833,309.203 283.083,310.453 281.583,313.036 280.125,314.495 279.083,313.453 277.583,313.453 275.5,311.786 273.333,311.286 271.583,310.203 269.333,311.036 267.417,312.036 266.917,309.453 264.25,306.786 261.833,305.37 259,304.787 257.583,303.37 255.583,302.703 253.25,300.953 251.167,300.953 251.583,303.203 251.583,305.203 253.333,307.703 255.083,309.453 254.417,311.786 254.417,314.203 252.167,315.62 251.542,318.162 252.75,319.37 253.083,321.953 252.667,323.537 250.333,322.953 248.417,323.453 247.792,325.078 247,325.87 247.333,327.703 245.333,328.703 245.583,331.62 247.25,332.37 248.875,332.912 250.333,334.37 251.833,332.203 252.917,332.62 253.833,330.453 256,330.037 257.5,330.037 258.583,331.12 260.25,330.287 260.417,332.537 261.833,333.953 259.75,336.037 258.292,336.662 256.083,338.87 253.5,340.453 253.25,341.953 251.25,343.203 249.958,344.495 251.833,346.37 250.417,348.787 248.75,350.037 247.333,351.703 245.667,351.37 245.333,350.037 242.667,350.037 241.25,349.62 241.417,350.787 239.333,351.37 239.642,353.903 237.595,355.95 237.595,359.312 234.379,360.042 234.379,362.235 232.187,364.428 232.187,366.913 233.94,368.667 233.94,371.152 234.671,373.784 233.648,376.123 234.817,377.292 236.718,374.953 237.887,371.591 240.811,370.86 243.881,372.322 245.781,374.222 248.412,371.737 249.801,373.125 250.605,374.953 253.09,374.661 254.625,373.125 257.329,373.125 259.875,372.12 259.875,370.12 258.188,368.432 259.75,365.37 263.125,367.245 264.313,366.057 265.5,367.245 267.125,365.62 269.25,366.37 270.125,367.745 269.75,369.87 271.5,371.995 273.625,371.245 277.25,372.87 279.625,375.245 282.25,373.87 285.25,374.995 286.938,373.307 288.625,373.87 289.813,375.057 291.5,374.495 292.5,372.37 294.25,372.37 298.125,374.995 301.875,376.995 306.125,378.62 311.875,379.495 312.75,377.12 314.313,375.557 314.875,372.62 319,368.495 319,366.245 320.375,363.62 319.75,360.745 322,356.495 325.375,354.37 325.75,351.37 329.75,348.87 329.125,345.245 330.625,342.37 334.063,338.932 336.625,336.37 338.75,337.12 338.75,339.745 341.625,339.37 344.75,336.245 347.875,334.62 349.625,332.62 352.833,332.12 357.167,332.287 357.167,328.62 362.5,325.62 367.833,324.453 373.5,324.453 374.667,320.786 377.833,320.786 380.833,317.786 384.833,315.786 382.25,313.203 385.333,311.953 385.333,309.786 382,308.12 382.5,305.037 383.833,304.37 384.583,302.537 382.667,301.453 382.667,301.453 380.75,301.453 377.417,304.287 374.5,304.453 373.167,307.62 368.75,306.87 367.583,308.787 365.667,310.704 363.75,311.787 360,313.12 356.833,313.87 353.083,311.953 351.083,312.37 348.833,310.453 344.417,308.703 339.917,305.787 336.583,304.453 331.167,302.37 328.5,299.703 325.25,299.37 320,295.953 " />
    <polygon
       style="fill:#fece2c;fill-opacity:1;stroke:#000000"
       id="BU"
       transform="translate(26.000002,8.0000247)"
       points="593.75,554.619 593.156,551.775 594.938,549.994 594.938,547.057 596.875,545.119 601.25,540.744 602.438,539.557 603.938,538.057 606.25,539.494 605.75,541.744 608.875,543.244 610.75,544.994 614.875,546.244 616.75,548.119 618.875,549.244 621.25,551.619 626.625,550.494 628.625,552.619 631.125,554.744 633.75,554.744 633.75,557.119 635.625,560.119 638.375,560.119 640.375,560.119 641.25,563.119 645,560.994 647.75,560.994 647.75,556.119 651.625,552.244 656.125,546.869 658.375,541.119 664.313,535.182 671,527.119 672,515.244 674.375,507.369 670.75,506.244 668.875,497.244 667.25,489.869 668.5,487.494 670.25,485.744 667.375,483.744 664.625,482.869 663.625,478.369 668.875,474.494 671.5,474.494 671.5,471.119 674,469.994 677.625,471.244 681.375,469.869 681.375,466.619 684,464.744 685.375,466.244 689.625,466.244 692.125,464.494 693.688,466.057 698.875,467.119 701,464.994 703.25,466.244 706.563,462.932 709.125,462.932 709.125,456.369 712.125,454.869 714,450.994 717.125,451.744 718.625,453.244 715,456.619 715,461.119 718.125,462.744 719.375,466.744 721.375,469.119 722.625,473.369 725.5,476.494 728.125,475.494 731.813,477.307 734.375,479.869 735.375,482.494 733.875,487.619 730.125,488.744 727,491.869 724.625,495.744 722.875,499.619 720.125,502.369 718,506.494 719.25,510.619 721.875,511.369 721.875,513.369 723.875,515.369 722.75,519.494 716.375,525.744 712.688,527.432 710.5,529.619 707.625,530.744 706.875,535.494 704.625,537.744 702.125,538.744 700.5,544.369 697.875,544.369 694.625,543.869 690.25,548.244 688,549.369 686.125,548.619 684.25,548.619 682.375,550.494 682.375,553.619 683.75,555.244 681.625,556.119 681.625,561.994 684.563,561.557 686.563,563.557 681.125,568.994 681.833,572.119 675.5,572.119 675.5,572.119 669.667,571.285 667.333,569.785 659.667,570.869 654.916,570.869 651,574.785 646.667,575.785 642.5,576.953 636.5,576.453 632.418,574.703 629.834,572.119 627.418,567.035 624.334,563.953 620,562.287 615.834,562.287 611.084,563.535 607.834,560.287 601.334,560.287 597.5,557.453 595.583,559.369 595.375,556.244 " />
    <g
       transform="translate(26.006213,7.9997125)"
       id="SA"
       style="fill:#fece2c;fill-opacity:1;stroke:#000000">
      <polygon
         points="724.897,130.733 726.787,128.843 728.527,126.801 731.854,125.289 734.274,127.104 732.913,130.885 732.913,133.002 731.325,134.59 728.829,135.725 726.107,136.784 723.385,136.784 721.343,138.826 718.091,137.691 716.427,135.271 715.671,134.212 715.671,134.212 715.368,133.002 717.637,134.061 718.771,132.926 720.359,131.338 722.704,128.994 724.141,130.733 "
         id="polygon3424-1"
         style="fill:#fece2c;fill-opacity:1" />
      <polygon
         points="703.419,163.555 703.419,161.135 701.453,159.32 702.512,158.261 704.1,159.849 706.898,154.783 709.545,152.136 710.68,153.27 713.1,150.85 713.855,148.581 711.133,147.674 709.318,149.489 707.05,147.825 704.327,146.161 701.604,144.195 702.512,142.229 703.949,140.792 705.083,144.648 706.822,146.388 709.771,146.917 711.587,146.161 713.1,146.161 714.611,144.649 713.855,141.472 711.436,141.472 712.041,138.75 712.041,136.784 710.074,137.389 710.074,137.389 705.234,137.389 703.646,138.977 701.15,140.716 699.335,138.901 694.949,140.262 695.252,142.985 696.387,144.12 698.05,145.783 699.185,146.917 697.521,148.279 695.252,146.313 694.042,147.522 692.378,145.858 688.597,146.615 686.933,145.708 686.177,147.674 687.387,148.883 685.118,150.094 685.118,152.967 686.934,154.782 686.479,156.9 688.143,156.9 690.261,159.018 689.655,161.438 692.378,162.799 696.008,162.95 697.521,164.462 700.243,164.462 "
         id="polygon3426-7"
         style="fill:#fece2c;fill-opacity:1" />
      <polygon
         points="715.52,164.917 714.461,163.858 712.646,164.009 712.646,164.009 711.284,165.219 712.343,168.244 714.083,169.984 715.52,167.185 "
         id="polygon3428-4"
         style="fill:#fece2c;fill-opacity:1" />
      <polygon
         points="718.847,166.731 718.847,166.731 717.107,168.471 718.091,170.815 719.755,172.479 718.695,174.899 719.604,175.807 720.965,172.933 724.443,172.176 727.469,170.966 731.552,168.546 729.435,164.614 726.561,164.614 722.477,163.252 720.586,164.992 "
         id="polygon3430-0"
         style="fill:#fece2c;fill-opacity:1" />
      <polygon
         points="685.571,163.857 685.571,161.891 684.815,160.227 684.815,160.227 683.454,158.866 681.034,158.715 682.623,160.303 683.605,163.857 "
         id="polygon3432-9"
         style="fill:#fece2c;fill-opacity:1" />
      <polygon
         points="609.188,219.064 609.188,219.064 606.391,221.862 606.391,223.752 608.734,223.752 609.491,225.567 611.457,224.66 613.727,222.391 613.727,218.761 610.853,218.761 "
         id="polygon3434-4"
         style="fill:#fece2c;fill-opacity:1" />
      <polygon
         points="707.798,112.583 707.798,112.583 706.891,114.247 707.874,115.23 709.009,114.247 "
         id="polygon3436-8"
         style="fill:#fece2c;fill-opacity:1" />
      <polygon
         points="696.454,178.075 695.547,178.831 697.211,179.587 699.328,181.251 700.235,180.041 699.328,178.68 699.328,178.68 "
         id="polygon3438-8"
         style="fill:#fece2c;fill-opacity:1" />
      <path
         d="m 833.166,129.787 -3.166,3.166 0,2.334 1.583,1.583 -3.25,0 -3,2.417 -4.167,1.833 -4.666,-4.667 -2.25,-2.25 -4.584,0.25 -5.5,0.833 -3.166,3.834 -3.5,3.5 -4.167,6.167 0,4.833 -3.333,4.167 -3.167,3.167 -3.5,0.166 -3.167,-1.667 -4.5,2.5 c 0,0 1,4.333 0.5,3.833 -0.5,-0.5 -3.166,-3.333 -3.166,-3.333 l -2.334,2.667 -3.666,0 c 0,0 -2.25,-0.75 -1.167,-1.833 1.083,-1.083 2.5,-3 2.5,-3 l -3,-2.167 -5,2.167 -3.5,1.667 -1.5,4.167 -0.667,2.333 1,5.333 0,3.167 -2.833,2.667 0.833,-6.5 -3.166,-1 -2.5,2.5 -2.834,1.333 1.167,-4.5 c 0,0 3.167,-1.167 3.167,-2.167 0,-1 -0.667,-1.667 -0.667,-1.667 l -4.833,2.167 -6.167,2.333 -1.333,3.833 -4.667,2.333 -3.167,0 -2.166,2.167 3.5,2.167 0.5,2.333 -3.667,3.333 0,3.5 2,1.333 1.667,-4.333 1.166,1 0,3.667 2.834,1.5 2.5,2.5 1.166,0.667 -2.5,2.5 -3.166,-0.167 -1.834,2 -1.416,1.417 3.916,1.75 0,2.5 -3.666,-1 -3.167,0.167 -4.333,1 -2.334,4.333 0.834,4.333 -4.167,0 -3.667,1 -2.333,-2.333 -4.167,-0.5 0,3 2.167,2.167 0,2.333 1,2.5 1.667,5.5 -0.334,3.167 -3.833,-2 -1.5,1.5 -3.5,-0.667 -2.5,-1.667 -3.25,-3.25 -3.417,0.084 0,-2.667 c 0,0 -1.5,-2.333 -1.5,-1.5 0,0.833 -1.833,1.667 -1.833,1.667 l -2.333,-2.334 1.333,-1.333 2.167,-0.667 0,-3.667 -1.667,-1.667 -3.167,2 0,-3.167 -1.917,-1.917 -1.916,0 1.333,-4.083 -4,-1.333 -1.166,1.167 -3.667,-2.833 c 0,0 -0.333,1.583 -1.583,1.583 -1.25,0 -1.084,3.083 -1.084,3.083 l -1.333,1 -1.333,-1.5 -1.334,0.333 -0.666,2 -2.667,-1.833 -1.75,-1.75 -2.083,1.583 -2,-2 -0.5,2 -0.667,3.833 2.5,3.833 0.5,3.333 c 0,0 0.833,3 0,3 -0.833,0 -4.5,0.667 -4.5,0.667 l -3.5,3 -3.5,1.333 -2,-3.167 -0.5,1.833 -0.167,1.333 -5.166,0 -2.75,-2.75 1.167,-1.167 -1.251,-1.917 -5,1.5 -6.333,1.167 -4.167,2.167 -3.083,3.083 -1.583,1.587 2.333,2.167 -2.333,0 -2,-2.833 0,-3.333 -1.75,-1.75 -2.084,2.917 -0.666,2 -3.334,-1.333 -2.833,-0.667 0.433,2.927 1.327,1.056 -0.332,1.6 -1.146,1.207 0.755,1.931 1.479,2.233 1.418,1.418 -0.573,3.35 1.183,2.486 3.375,1.25 0,1.75 4.5,3.25 2.125,2.125 0,4.125 2.375,4.5 2.625,0 0.25,3.375 -1.375,0 -0.688,2.313 -3.188,3.188 -2.75,1.875 0.125,6 -2.5,0.875 -0.875,3.25 1.875,1.875 0,2.75 -1,2.25 -3.375,-1 -2.5,0.75 -3.625,5.125 -3.5,1.375 0,1.375 0.9,2.243 1.25,2.915 2.914,1.978 0.312,5.518 2.915,5.309 0,2.186 0.729,4.164 0.938,6.454 -2.499,0.729 -1.665,2.707 -1.562,1.562 0.937,2.811 0.938,-0.937 3.122,1.25 0,2.707 1.146,1.146 -1.146,1.041 0,2.915 2.915,1.562 0.937,4.581 3.436,3.435 -1.145,3.227 -1.979,3.123 0.833,2.499 0,2.186 -1.041,1.041 0,3.331 1.77,0.833 2.707,0 1.354,-1.353 1.561,0 1.458,1.769 3.019,-1.145 2.29,1.041 1.821,-1.822 2.446,0.156 0.106,1.979 2.342,2.342 0,2.134 -2.238,0.625 0,3.227 2.707,-0.208 2.811,-0.833 2.498,1.77 2.082,3.748 0.937,3.643 1.146,1.146 -1.041,1.041 0,2.395 2.603,1.249 2.395,0 1.821,1.821 -0.364,3.071 -1.301,1.301 0,2.238 1.899,1.9 0.963,2.264 0.313,1.978 2.082,0.729 2.915,1.249 0,4.06 -0.625,4.164 0,4.685 -0.521,4.996 0.417,8.328 4.007,4.006 3.592,-0.26 1.666,-2.498 1.041,-3.123 2.602,0 5.518,-2.082 0.521,-2.705 2.082,-0.938 2.187,2.186 0,2.916 1.873,2.602 0,-3.436 4.372,-3.018 0,-5.83 3.123,-3.123 1.249,-3.748 -0.937,-3.228 2.342,-2.342 0.989,-3.279 1.978,-2.394 3.539,0.521 3.54,-0.417 3.747,1.77 3.228,0.417 0,3.019 1.562,1.354 0,2.394 3.643,0.521 2.342,-2.342 0,-2.551 2.655,0 1.822,1.822 2.238,2.446 0,2.395 2.082,0.208 1.354,3.748 2.186,2.186 2.551,2.551 -0.572,1.822 1.718,1.717 0.78,3.801 3.644,1.352 2.603,3.436 2.498,0.834 0,2.914 2.706,0.729 2.915,-2.914 3.228,-2.707 3.227,0 1.51,-1.51 1.821,1.822 2.498,0.52 1.145,-1.145 3.332,0 1.354,1.77 2.082,0 0.624,-2.498 4.164,0.832 1.457,-1.457 3.02,-0.625 2.811,1.25 3.539,3.539 2.706,-1.248 3.02,-0.729 1.353,-1.875 2.29,1.041 1.666,-1.666 1.874,0 1.77,1.77 1.717,-1.717 4.893,-4.893 3.592,0.572 0,-2.289 4.477,-1.666 3.227,0.625 3.331,-2.082 -0.208,-3.436 5.413,-3.228 5.102,-4.164 -1.874,-4.373 0,-3.331 -2.186,-2.186 1.926,-1.926 0.572,-4.32 -4.58,-1.978 -3.747,0 -0.417,-2.187 2.603,-0.521 -1.354,-2.706 0.729,-5.101 -3.123,-0.521 -3.123,-3.228 2.706,-0.625 0.313,-3.956 -1.249,-1.249 -0.729,-2.083 1.041,-2.602 -2.082,-2.082 1.77,-2.395 -1.51,-1.51 0,-3.591 3.384,-1.77 2.29,-1.25 2.706,0.313 2.238,-2.238 2.967,-1.197 0.417,-2.915 -1.926,-1.926 1.093,-2.758 3.852,-0.729 5.101,-5.101 -0.208,-5.726 3.644,-1.249 0,-1.874 -3.592,-3.592 -0.78,-2.55 -4.008,-4.008 -2.551,-0.572 -0.521,-3.227 0.625,-3.852 -2.03,-2.03 3.071,-4.007 0,-3.54 0.208,-4.372 -1.562,-1.562 -0.832,-3.123 -1.458,-1.458 -0.104,-3.851 2.914,-0.625 2.499,0.625 3.227,1.77 3.228,-1.666 2.603,-0.833 2.603,-2.602 1.873,-3.332 2.498,0.104 1.458,-0.937 1.093,1.093 1.405,-0.468 0,-2.815 -0.207,-4.581 0.521,-3.123 -2.498,-2.498 -0.625,-1.979 -2.238,-2.238 -3.903,-2.03 -1.041,-2.394 -2.706,-3.644 0,-1.978 -1.354,-0.625 0.625,-3.332 1.093,-1.093 -1.874,-1.874 0.469,-2.863 4.372,-1.77 0,-1.562 3.331,0.104 -0.313,-3.748 -2.498,-0.729 -1.666,-2.186 2.082,-1.978 2.082,0 0,-2.602 2.082,-1.458 0,-1.874 2.603,-0.625 1.562,1.874 2.186,-0.313 1.146,-2.394 -0.729,-2.082 2.29,-3.644 0.729,-2.394 2.29,-0.417 0,-2.082 -1.146,-3.019 -2.706,-1.562 -2.603,-2.603 0,-3.019 -0.208,-3.332 -2.498,-1.25 -1.77,-2.394 0,-2.811 1.978,-0.417 -0.938,-2.707 -2.811,-0.833 0.521,-2.499 2.915,-1.145 0,-2.915 1.354,-1.353 3.227,0 0.313,-3.436 4.164,0 1.666,-1.666 -1.042,-3.435 1.458,-2.811 -1.978,-3.228 -1.873,0 -1.77,-3.539 -1.979,-1.979 -2.706,0 -3.436,1.146 -3.123,-1.354 -3.331,-0.52 0,-3.852 -2.603,-1.457 -1.353,-3.331 1.978,-3.123 0,-3.435 2.29,-1.562 0,-3.331 1.562,-3.956 3.436,-2.602 -2.603,-4.372 -3.02,-1.146 -0.832,-2.082 -3.331,-0.417 -3.956,-1.354 -1.332,-1.88 z"
         id="path3440"
         style="fill:#fece2c;fill-opacity:1"
         inkscape:connector-curvature="0" />
    </g>
    <a
       id="a968">
      <polygon
         points="517.813,562.994 517.813,566.682 514.625,569.869 508.5,568.869 507,570.369 505.25,570.369 503.625,573.682 500.938,573.682 497.5,570.244 499.125,568.619 498.375,565.369 502.875,560.869 505.167,560.869 505.167,558.121 510.417,552.871 508.917,551.371 507.833,549.287 508.167,547.453 509.417,546.203 507.833,544.121 506.167,542.453 508.922,538.32 509.167,533.121 510.25,532.037 510.25,529.953 507.333,529.453 505.417,531.371 503.083,529.037 506.084,527.807 506.084,525.121 506.833,522.453 505.167,519.121 504,515.787 506.5,513.621 506.5,513.621 508.36,516.83 511.523,520.271 514.779,520.922 516.314,519.387 521.197,519.898 524.36,518.783 525.384,520.83 524.268,525.295 527.663,528.689 528.732,532.643 532.221,536.131 532.221,539.34 533.197,542.039 532.174,545.48 529.43,548.225 529.849,551.619 527.104,554.363 524.081,555.713 522.593,559.434 521.375,561.119 "
         transform="translate(26.000002,8.0000247)"
         id="KK"
         style="fill:#01bee7;fill-opacity:1;stroke:#000000" />
    </a>
    <a
       id="a4675"
       xlink:href=""
       target="Adygea">
      <polygon
         points="32.438,502.994 33.375,504.744 34.125,503.994 35.875,503.682 35.875,502.432 37.094,501.4 38.938,499.557 40.688,497.057 42.188,495.557 43.75,494.869 44.438,497.057 45.313,495.244 45.313,491.557 45.313,489.182 44.188,488.432 43.188,487.432 41.688,486.619 41.188,484.807 39.063,484.119 38.188,484.557 36.125,483.932 36.125,483.932 35.125,482.369 33.219,480.463 32.25,480.869 32.25,482.494 33.063,483.994 36.563,487.619 38.25,487.619 38.75,486.994 40.563,488.119 41.531,490.4 40.438,491.494 38.625,491.369 37.625,493.307 36.063,493.307 36.063,496.057 36.688,497.682 36.25,498.994 32.625,498.994 31.344,498.4 29.875,499.869 "
         transform="translate(26.000002,8.0000247)"
         id="AD"
         style="fill:#fc8b8b;fill-opacity:1;stroke:#000000" />
    </a>
    <polygon
       style="fill:#62d2c5;fill-opacity:1;stroke:#000000"
       id="KR"
       transform="translate(26.000002,8.0000247)"
       points="193.333,290.786 193,288.536 195.75,287.704 197.042,284.328 193.833,281.12 194.25,276.954 195.083,275.12 197.167,274.036 198.167,271.704 198,269.12 199,267.954 200.25,269.62 201,268.87 202.75,270.037 204.917,267.037 207.333,262.787 204.833,254.953 207.916,251.87 209.167,245.953 212.417,242.703 216.5,241.453 218.833,236.287 219.5,232.62 217.083,230.203 218.916,228.37 218.833,224.12 216.75,224.286 215,223.245 212.208,223.912 210.417,222.12 211.292,219.661 211.667,216.661 203.667,209.453 197.5,220.953 194.667,219.62 188.833,224.287 186.167,224.453 186.167,230.12 183.167,231.287 183.167,235.62 179.167,238.787 174.5,238.787 173.333,249.787 173.333,254.12 166.333,256.62 144.258,256.787 144.258,256.787 144.258,261.693 146.059,267.908 152.364,286.102 156.327,287.903 158.669,292.316 160.5,299.287 164.25,297.203 166.75,293.62 168.583,294.62 171.667,292.953 174.417,292.036 177.167,292.536 179.583,293.62 182.333,293.036 184.5,294.37 184.667,295.87 187,298.454 188.25,297.036 189.458,296.745 192.75,293.454 " />
    <a
       id="a4682"
       xlink:href=""
       target="Crimea" />
    <text
       xml:space="preserve"
       style="font-style:normal;font-variant:normal;font-weight:normal;font-stretch:normal;font-size:13.33333302px;line-height:1.25;font-family:andika;-inkscape-font-specification:andika;font-variant-ligatures:normal;font-variant-caps:normal;font-variant-numeric:normal;font-feature-settings:normal;text-align:start;writing-mode:lr-tb;text-anchor:start;opacity:1;vector-effect:none;fill:#dd55ff;fill-opacity:1;stroke:#dd2e44;stroke-width:1.33299994;stroke-linecap:butt;stroke-linejoin:round;stroke-miterlimit:4;stroke-dasharray:none;stroke-dashoffset:0;stroke-opacity:1;paint-order:markers stroke fill"
       x="733.31769"
       y="325.37939"
       id="text921"><tspan
         sodipodi:role="line"
         id="tspan919"
         x="733.31769"
         y="325.37939"
         style="font-style:normal;font-variant:normal;font-weight:bold;font-stretch:normal;font-family:andika;-inkscape-font-specification:'andika Bold';fill:#000000;fill-opacity:1;stroke:none">Sakha</tspan></text>
    <text
       xml:space="preserve"
       style="font-style:normal;font-variant:normal;font-weight:bold;font-stretch:normal;font-size:13.33333302px;line-height:1.25;font-family:andika;-inkscape-font-specification:'andika Bold';font-variant-ligatures:normal;font-variant-caps:normal;font-variant-numeric:normal;font-feature-settings:normal;text-align:start;writing-mode:lr-tb;text-anchor:start;opacity:1;vector-effect:none;fill:#000000;fill-opacity:1;stroke:none;stroke-width:1.33299994;stroke-linecap:butt;stroke-linejoin:round;stroke-miterlimit:4;stroke-dasharray:none;stroke-dashoffset:0;stroke-opacity:1;paint-order:markers stroke fill"
       x="698.10876"
       y="495.96072"
       id="text925"><tspan
         sodipodi:role="line"
         id="tspan923"
         x="698.10876"
         y="495.96072">Buryatia</tspan></text>
    <text
       xml:space="preserve"
       style="font-style:normal;font-variant:normal;font-weight:bold;font-stretch:normal;font-size:13.33333302px;line-height:1.25;font-family:andika;-inkscape-font-specification:'andika Bold';font-variant-ligatures:normal;font-variant-caps:normal;font-variant-numeric:normal;font-feature-settings:normal;text-align:start;writing-mode:lr-tb;text-anchor:start;opacity:1;vector-effect:none;fill:#000000;fill-opacity:1;stroke:none;stroke-width:1.33299994;stroke-linecap:butt;stroke-linejoin:round;stroke-miterlimit:4;stroke-dasharray:none;stroke-dashoffset:0;stroke-opacity:1;paint-order:markers stroke fill"
       x="573.9668"
       y="583.67957"
       id="text929"><tspan
         sodipodi:role="line"
         id="tspan927"
         x="573.9668"
         y="583.67957">Tuva</tspan></text>
    <text
       xml:space="preserve"
       style="font-style:normal;font-variant:normal;font-weight:bold;font-stretch:normal;font-size:13.33333302px;line-height:1.25;font-family:andika;-inkscape-font-specification:'andika Bold';font-variant-ligatures:normal;font-variant-caps:normal;font-variant-numeric:normal;font-feature-settings:normal;text-align:start;writing-mode:lr-tb;text-anchor:start;opacity:1;vector-effect:none;fill:#000000;fill-opacity:1;stroke:none;stroke-width:1.33299994;stroke-linecap:butt;stroke-linejoin:round;stroke-miterlimit:4;stroke-dasharray:none;stroke-dashoffset:0;stroke-opacity:1;paint-order:markers stroke fill"
       x="498.69244"
       y="595.82062"
       id="text933"><tspan
         sodipodi:role="line"
         id="tspan931"
         x="498.69244"
         y="595.82062">Altai</tspan></text>
    <text
       xml:space="preserve"
       style="font-style:normal;font-variant:normal;font-weight:bold;font-stretch:normal;font-size:13.33333302px;line-height:1.25;font-family:andika;-inkscape-font-specification:'andika Bold';font-variant-ligatures:normal;font-variant-caps:normal;font-variant-numeric:normal;font-feature-settings:normal;text-align:start;writing-mode:lr-tb;text-anchor:start;opacity:1;vector-effect:none;fill:#000000;fill-opacity:1;stroke:none;stroke-width:1.33299994;stroke-linecap:butt;stroke-linejoin:round;stroke-miterlimit:4;stroke-dasharray:none;stroke-dashoffset:0;stroke-opacity:1;paint-order:markers stroke fill"
       x="515.93872"
       y="516.79626"
       id="text937"><tspan
         sodipodi:role="line"
         id="tspan935"
         x="515.93872"
         y="516.79626">Khakassia</tspan></text>
    <text
       xml:space="preserve"
       style="font-style:normal;font-variant:normal;font-weight:bold;font-stretch:normal;font-size:13.33333302px;line-height:1.25;font-family:andika;-inkscape-font-specification:'andika Bold';font-variant-ligatures:normal;font-variant-caps:normal;font-variant-numeric:normal;font-feature-settings:normal;text-align:start;writing-mode:lr-tb;text-anchor:start;opacity:1;vector-effect:none;fill:#000000;fill-opacity:1;stroke:none;stroke-width:1.33299994;stroke-linecap:butt;stroke-linejoin:round;stroke-miterlimit:4;stroke-dasharray:none;stroke-dashoffset:0;stroke-opacity:1;paint-order:markers stroke fill"
       x="447.51135"
       y="281.89502"
       id="text941"
       transform="rotate(30)"><tspan
         sodipodi:role="line"
         id="tspan939"
         x="447.51135"
         y="281.89502">Bashkortostan</tspan></text>
    <text
       xml:space="preserve"
       style="font-style:normal;font-variant:normal;font-weight:bold;font-stretch:normal;font-size:13.33333302px;line-height:1.25;font-family:andika;-inkscape-font-specification:'andika Bold';font-variant-ligatures:normal;font-variant-caps:normal;font-variant-numeric:normal;font-feature-settings:normal;text-align:start;writing-mode:lr-tb;text-anchor:start;opacity:1;vector-effect:none;fill:#000000;fill-opacity:1;stroke:none;stroke-width:1.33299994;stroke-linecap:butt;stroke-linejoin:round;stroke-miterlimit:4;stroke-dasharray:none;stroke-dashoffset:0;stroke-opacity:1;paint-order:markers stroke fill"
       x="404.61423"
       y="262.41913"
       id="text945"
       transform="rotate(30)"><tspan
         sodipodi:role="line"
         id="tspan943"
         x="404.61423"
         y="262.41913">Tatar.</tspan></text>
    <text
       xml:space="preserve"
       style="font-style:normal;font-variant:normal;font-weight:bold;font-stretch:normal;font-size:13.33333302px;line-height:1.25;font-family:andika;-inkscape-font-specification:'andika Bold';font-variant-ligatures:normal;font-variant-caps:normal;font-variant-numeric:normal;font-feature-settings:normal;text-align:start;writing-mode:lr-tb;text-anchor:start;opacity:1;vector-effect:none;fill:#000000;fill-opacity:1;stroke:none;stroke-width:1.33299994;stroke-linecap:butt;stroke-linejoin:round;stroke-miterlimit:4;stroke-dasharray:none;stroke-dashoffset:0;stroke-opacity:1;paint-order:markers stroke fill"
       x="434.48105"
       y="228.85748"
       id="text949"
       transform="rotate(30)"><tspan
         sodipodi:role="line"
         id="tspan947"
         x="434.48105"
         y="228.85748">Udmurtia</tspan></text>
    <text
       xml:space="preserve"
       style="font-style:normal;font-variant:normal;font-weight:bold;font-stretch:normal;font-size:13.33333302px;line-height:1.25;font-family:andika;-inkscape-font-specification:'andika Bold';font-variant-ligatures:normal;font-variant-caps:normal;font-variant-numeric:normal;font-feature-settings:normal;text-align:start;writing-mode:lr-tb;text-anchor:start;opacity:1;vector-effect:none;fill:#000000;fill-opacity:1;stroke:none;stroke-width:1.33299994;stroke-linecap:butt;stroke-linejoin:round;stroke-miterlimit:4;stroke-dasharray:none;stroke-dashoffset:0;stroke-opacity:1;paint-order:markers stroke fill"
       x="354.22919"
       y="228.79478"
       id="text953"
       transform="rotate(30)"><tspan
         sodipodi:role="line"
         id="tspan951"
         x="354.22919"
         y="228.79478">Mari El</tspan></text>
    <text
       xml:space="preserve"
       style="font-style:normal;font-variant:normal;font-weight:bold;font-stretch:normal;font-size:13.33333302px;line-height:1.25;font-family:andika;-inkscape-font-specification:'andika Bold';font-variant-ligatures:normal;font-variant-caps:normal;font-variant-numeric:normal;font-feature-settings:normal;text-align:start;writing-mode:lr-tb;text-anchor:start;opacity:1;vector-effect:none;fill:#000000;fill-opacity:1;stroke:none;stroke-width:1.33299994;stroke-linecap:butt;stroke-linejoin:round;stroke-miterlimit:4;stroke-dasharray:none;stroke-dashoffset:0;stroke-opacity:1;paint-order:markers stroke fill"
       x="313.15643"
       y="252.96013"
       id="text957"
       transform="rotate(30)"><tspan
         sodipodi:role="line"
         id="tspan955"
         x="313.15643"
         y="252.96013">Chuvashia</tspan></text>
    <text
       xml:space="preserve"
       style="font-style:normal;font-variant:normal;font-weight:bold;font-stretch:normal;font-size:13.33333302px;line-height:1.25;font-family:andika;-inkscape-font-specification:'andika Bold';font-variant-ligatures:normal;font-variant-caps:normal;font-variant-numeric:normal;font-feature-settings:normal;text-align:start;writing-mode:lr-tb;text-anchor:start;opacity:1;vector-effect:none;fill:#000000;fill-opacity:1;stroke:none;stroke-width:1.33299994;stroke-linecap:butt;stroke-linejoin:round;stroke-miterlimit:4;stroke-dasharray:none;stroke-dashoffset:0;stroke-opacity:1;paint-order:markers stroke fill"
       x="288.6192"
       y="269.59"
       id="text961"
       transform="rotate(30)"><tspan
         sodipodi:role="line"
         id="tspan959"
         x="288.6192"
         y="269.59">Mordovia</tspan></text>
    <text
       xml:space="preserve"
       style="font-style:normal;font-variant:normal;font-weight:bold;font-stretch:normal;font-size:13.33333302px;line-height:1.25;font-family:andika;-inkscape-font-specification:'andika Bold';font-variant-ligatures:normal;font-variant-caps:normal;font-variant-numeric:normal;font-feature-settings:normal;text-align:start;writing-mode:lr-tb;text-anchor:start;opacity:1;vector-effect:none;fill:#000000;fill-opacity:1;stroke:none;stroke-width:1.33299994;stroke-linecap:butt;stroke-linejoin:round;stroke-miterlimit:4;stroke-dasharray:none;stroke-dashoffset:0;stroke-opacity:1;paint-order:markers stroke fill"
       x="305.34671"
       y="347.53674"
       id="text965"><tspan
         sodipodi:role="line"
         id="tspan963"
         x="305.34671"
         y="347.53674">Komi</tspan></text>
    <text
       xml:space="preserve"
       style="font-style:normal;font-variant:normal;font-weight:bold;font-stretch:normal;font-size:13.33333302px;line-height:1.25;font-family:andika;-inkscape-font-specification:'andika Bold';font-variant-ligatures:normal;font-variant-caps:normal;font-variant-numeric:normal;font-feature-settings:normal;text-align:start;writing-mode:lr-tb;text-anchor:start;opacity:1;vector-effect:none;fill:#000000;fill-opacity:1;stroke:none;stroke-width:1.33299994;stroke-linecap:butt;stroke-linejoin:round;stroke-miterlimit:4;stroke-dasharray:none;stroke-dashoffset:0;stroke-opacity:1;paint-order:markers stroke fill"
       x="148.15468"
       y="246.87166"
       id="text969"><tspan
         sodipodi:role="line"
         id="tspan967"
         x="148.15468"
         y="246.87166">Karelia</tspan></text>
    <a
       id="a4685"
       xlink:href=""
       target="Crimea" />
    <a
       id="a4678"
       xlink:href=""
       target="Adygea">
      <text
         id="text977"
         y="500.81717"
         x="2.4282033"
         style="font-style:normal;font-variant:normal;font-weight:bold;font-stretch:normal;font-size:13.33333302px;line-height:1.25;font-family:andika;-inkscape-font-specification:'andika Bold';font-variant-ligatures:normal;font-variant-caps:normal;font-variant-numeric:normal;font-feature-settings:normal;text-align:start;writing-mode:lr-tb;text-anchor:start;opacity:1;vector-effect:none;fill:#000000;fill-opacity:1;stroke:none;stroke-width:1.33299994;stroke-linecap:butt;stroke-linejoin:round;stroke-miterlimit:4;stroke-dasharray:none;stroke-dashoffset:0;stroke-opacity:1;paint-order:markers stroke fill"
         xml:space="preserve"><tspan
           y="500.81717"
           x="2.4282033"
           id="tspan975"
           sodipodi:role="line">Adygea</tspan></text>
    </a>
    <text
       xml:space="preserve"
       style="font-style:normal;font-variant:normal;font-weight:bold;font-stretch:normal;font-size:13.33333302px;line-height:1.25;font-family:andika;-inkscape-font-specification:'andika Bold';font-variant-ligatures:normal;font-variant-caps:normal;font-variant-numeric:normal;font-feature-settings:normal;text-align:start;writing-mode:lr-tb;text-anchor:start;opacity:1;vector-effect:none;fill:#000000;fill-opacity:1;stroke:none;stroke-width:1.33299994;stroke-linecap:butt;stroke-linejoin:round;stroke-miterlimit:4;stroke-dasharray:none;stroke-dashoffset:0;stroke-opacity:1;paint-order:markers stroke fill"
       x="101.68107"
       y="484.12323"
       id="text981"><tspan
         sodipodi:role="line"
         x="101.68107"
         y="484.12323"
         id="tspan983">Kalmykia</tspan></text>
    <text
       xml:space="preserve"
       style="font-style:normal;font-variant:normal;font-weight:bold;font-stretch:normal;font-size:13.33333302px;line-height:1.25;font-family:andika;-inkscape-font-specification:'andika Bold';font-variant-ligatures:normal;font-variant-caps:normal;font-variant-numeric:normal;font-feature-settings:normal;text-align:start;writing-mode:lr-tb;text-anchor:start;opacity:1;vector-effect:none;fill:#000000;fill-opacity:1;stroke:none;stroke-width:1.33299994;stroke-linecap:butt;stroke-linejoin:round;stroke-miterlimit:4;stroke-dasharray:none;stroke-dashoffset:0;stroke-opacity:1;paint-order:markers stroke fill"
       x="117.55339"
       y="594.50452"
       id="text989"><tspan
         sodipodi:role="line"
         id="tspan987"
         x="117.55339"
         y="594.50452">Dagestan</tspan></text>
    <flowRoot
       xml:space="preserve"
       id="flowRoot991"
       style="line-height:1.25;fill-opacity:1;opacity:1;stroke-width:1.333;stroke-miterlimit:4;stroke-dasharray:none;font-size:13.33333333px;stroke:none;stroke-opacity:1;-inkscape-font-specification:'andika Bold';font-family:andika;font-weight:bold;font-style:normal;font-stretch:normal;font-variant:normal;text-anchor:start;text-align:start;stroke-linecap:butt;paint-order:markers stroke fill;stroke-linejoin:round;font-variant-east_asian:normal;vector-effect:none;stroke-dashoffset:0;writing-mode:lr;font-variant-ligatures:normal;font-variant-caps:normal;font-variant-numeric:normal;font-feature-settings:normal;fill:#000000"><flowRegion
         id="flowRegion993"><rect
           id="rect995"
           width="30.959604"
           height="34.60191"
           x="9.1057663"
           y="535.41907" /></flowRegion><flowPara
         id="flowPara997" /></flowRoot>
    <text
       xml:space="preserve"
       style="font-style:normal;font-variant:normal;font-weight:bold;font-stretch:normal;font-size:13.33333302px;line-height:1.25;font-family:andika;-inkscape-font-specification:'andika Bold';font-variant-ligatures:normal;font-variant-caps:normal;font-variant-numeric:normal;font-feature-settings:normal;text-align:start;writing-mode:lr-tb;text-anchor:start;opacity:1;vector-effect:none;fill:#000000;fill-opacity:1;stroke:none;stroke-width:1.33299994;stroke-linecap:butt;stroke-linejoin:round;stroke-miterlimit:4;stroke-dasharray:none;stroke-dashoffset:0;stroke-opacity:1;paint-order:markers stroke fill"
       x="-272.2558"
       y="487.94638"
       id="text1001"
       transform="rotate(-30)"><tspan
         sodipodi:role="line"
         id="tspan999"
         x="-272.2558"
         y="487.94638">Kar-Cher.</tspan></text>
    <text
       xml:space="preserve"
       style="font-style:normal;font-variant:normal;font-weight:bold;font-stretch:normal;font-size:13.33333302px;line-height:1.25;font-family:andika;-inkscape-font-specification:'andika Bold';font-variant-ligatures:normal;font-variant-caps:normal;font-variant-numeric:normal;font-feature-settings:normal;text-align:start;writing-mode:lr-tb;text-anchor:start;opacity:1;vector-effect:none;fill:#000000;fill-opacity:1;stroke:none;stroke-width:1.33299994;stroke-linecap:butt;stroke-linejoin:round;stroke-miterlimit:4;stroke-dasharray:none;stroke-dashoffset:0;stroke-opacity:1;paint-order:markers stroke fill"
       x="-271.60709"
       y="505.26364"
       id="text1005"
       transform="rotate(-30)"><tspan
         sodipodi:role="line"
         id="tspan1003"
         x="-271.60709"
         y="505.26364">Kab-Balk.</tspan></text>
    <text
       xml:space="preserve"
       style="font-style:normal;font-variant:normal;font-weight:bold;font-stretch:normal;font-size:13.33333302px;line-height:1.25;font-family:andika;-inkscape-font-specification:'andika Bold';font-variant-ligatures:normal;font-variant-caps:normal;font-variant-numeric:normal;font-feature-settings:normal;text-align:start;writing-mode:lr-tb;text-anchor:start;opacity:1;vector-effect:none;fill:#000000;fill-opacity:1;stroke:none;stroke-width:1.33299994;stroke-linecap:butt;stroke-linejoin:round;stroke-miterlimit:4;stroke-dasharray:none;stroke-dashoffset:0;stroke-opacity:1;paint-order:markers stroke fill"
       x="-281.06894"
       y="520.94568"
       id="text1009"
       transform="rotate(-30)"><tspan
         sodipodi:role="line"
         id="tspan1007"
         x="-281.06894"
         y="520.94568">N. Ossetia</tspan></text>
    <text
       xml:space="preserve"
       style="font-style:normal;font-variant:normal;font-weight:bold;font-stretch:normal;font-size:13.33333302px;line-height:1.25;font-family:andika;-inkscape-font-specification:'andika Bold';font-variant-ligatures:normal;font-variant-caps:normal;font-variant-numeric:normal;font-feature-settings:normal;text-align:start;writing-mode:lr-tb;text-anchor:start;opacity:1;vector-effect:none;fill:#000000;fill-opacity:1;stroke:none;stroke-width:1.33299994;stroke-linecap:butt;stroke-linejoin:round;stroke-miterlimit:4;stroke-dasharray:none;stroke-dashoffset:0;stroke-opacity:1;paint-order:markers stroke fill"
       x="141.77768"
       y="561.94641"
       id="text1013"><tspan
         sodipodi:role="line"
         id="tspan1011"
         x="141.77768"
         y="561.94641">Ingushetia</tspan></text>
    <text
       xml:space="preserve"
       style="font-style:normal;font-variant:normal;font-weight:bold;font-stretch:normal;font-size:13.33333302px;line-height:1.25;font-family:andika;-inkscape-font-specification:'andika Bold';font-variant-ligatures:normal;font-variant-caps:normal;font-variant-numeric:normal;font-feature-settings:normal;text-align:start;writing-mode:lr-tb;text-anchor:start;opacity:1;vector-effect:none;fill:#000000;fill-opacity:1;stroke:none;stroke-width:1.33299994;stroke-linecap:butt;stroke-linejoin:round;stroke-miterlimit:4;stroke-dasharray:none;stroke-dashoffset:0;stroke-opacity:1;paint-order:markers stroke fill"
       x="-271.05869"
       y="537.87604"
       id="text1017"
       transform="rotate(-30)"><tspan
         sodipodi:role="line"
         id="tspan1015"
         x="-271.05869"
         y="537.87604">Chechnya</tspan></text>
    <path
       style="fill:none;stroke:#000000;stroke-width:1px;stroke-linecap:butt;stroke-linejoin:miter;stroke-opacity:1"
       d="m 93.485868,549.44146 47.046462,7.89166"
       id="path1019"
       inkscape:connector-curvature="0"
       sodipodi:nodetypes="cc" />
  </g>
</svg>
